<svg version="1.1" id="Layer_1" xmlns="http://www.w3.org/2000/svg" x="0" y="0" viewBox="0 0 400 400" xml:space="preserve"><style>.st1{opacity:.4;fill:#003c69}</style><radialGradient id="SVGID_1_" cx="282.53" cy="127.263" r="332.955" gradientUnits="userSpaceOnUse"><stop offset=".004" stop-color="#00aeee"/><stop offset=".342" stop-color="#0083bc"/><stop offset=".784" stop-color="#005080"/><stop offset=".996" stop-color="#003c69"/></radialGradient><path d="M393.7 249.4c-27.5 107-136.4 171.6-243.3 144.4C43.4 366.5-21.1 257.6 6.3 150.6 33.7 43.5 142.7-21 249.6 6.3s171.5 136.1 144.1 243.1z" fill="url(#SVGID_1_)"/><path class="st1" d="M357.4 80.2c.2.8.5 1.1.5 1.1s.2 1 .3 1.3c.2.2.1.8.1 1.2 0 .5-.1.7-.5 1.1-.3.4-.7.8-.7.8s-1.2.1-1.4 0c-.3 0-.4-1-.3-1.3.1-.4-.5-.3-.5-.3s-1.4.3-1.6.5c-.1.3-.6.3-.7.6-.1.4-.3 1.2-.1 1.4.2.2-.5 1.1-.4 1.7 0 .5-.3.4-.4.8-.1.3-1.1-.2-1.1-.2l-.8-.4h-1.4s-.7-.3-.9-.6c-.2-.3-1.6-.3-1.6-.3l-1 .1s-1.1.5-1 .8c.1.4-1.5-.1-1.5-.1l-.4-.5s-.3-.6-.6-.6c-.4-.1-.6.3-1 .4s-.5-.3-.9-.2c-.4.3-.8-.1-1.2.1s-1-.1-1.2-.1c-.3 0-.4-.8-.6-1.2-.1-.4-.7-.5-1.1-.4-.3.2-.7.3-1.2.1-.4-.2-.7-.6-1.2-.1-.3.4-1.4 1-1.6 1.1-.3.2-.3.2-.5.7-.2.4-.5.5-.8.9-.3.4-.4.3-.5.8-.1.5 0 1.1 0 1.1s.4.5.5.8c.2.2.2 1 .4 1.2s.2.3.5.8c.1.4.3.4.7.8.4.4.3.4.4.8.2.3.3.7.4 1.2.1.4.1.4.1.6-.1.4-.1.7-.4 1.2-.3.5-.2.4-.8.9s0 0-.4.1-.7-.1-.9-.2c-.3 0-.9-.4-.9-.4s-.7-.1-.9-.4c-.2-.2-1-.3-1.3-.3-.4-.1-.9-.4-.9-.4h-.8c-.3 0-.4-.2-.6.1-.1.3-.9 0-1.3.4-.3.4-1 .1-1.6-.2-.5-.3-1.6 0-1.6 0s-.6-.6-.9-.8c-.3-.2-.5-.8-.5-.8l-.2-1s-.2-.5-.1-.9-.8-.2-.8-.2-1.3.2-1.4.3c-.1-.1-.1-.4-.6-.6-.4-.2 0 0-.5 0s-.6.3-.9.5c-.3.2-.9 0-.9 0l-1.2-.4c-.4-.1-.5 0-.6.3-.1.3-.2.3-.6.7-.3.4-.5.2-.7.3s-1.3.1-1.7.1c-.4-.2-.9-.2-1.2-.8-.2-.5-1.4-.2-1.4-.2l-1.2.1-.5-.6s-.7-.1-.9 0c-.4.1-.7.2-1.3.2-.6.1-1.4-.6-1.4-.6l-.7-1.4.3-.7.4-1.1.2-1.1-.2-1.2-.1-1.1-.1-.8s-.7-.6-1.4-.9l-1.3-.3-.7-.6.1-1 .2-1.1.3-1s-.2-.8-.8-1.2l-.7.3s-.3 1.2-.6 1.2c-.2.1-.7-.6-.7-.6l-.2-.5-.7-.8-.9.1s-.9.3-1.2.5c-.2.3-.6.4-.8.9-.1.3-.1.5-.2.9-.1.5-.5.4-.7.5-.2.3-.9.3-1.4.5-.5.4-.6.3-.9 0-.3-.2-.9-.2-1.1 0-.4.1-1 .6-.8.9.1.4-.5.4-.9.5-.4.1-1-.1-1.2.1-.2.1-1.6 1.5-1.8 1.9-.2.3-.7.6-1.1.9-.4.3-.8-.5-.8-.5s-1.3.2-1.5.3c-.2.1-1.2.5-1.3.8-.1.3-1.3.6-1.9.7-.6.1-.9.3-1 .6l-.3.9s-.5.4-.7.5-.9.5-1.1.6-.9.5-1.3.6c-.4.1-1.2.8-1.3 1.1-.1.3-1.1.6-1.8 1.3-.7.5 0 0-.3.5s-.4 1.1-.5 1.6c-.1.5-.2.3-.6.3s-.6.3-1 .7c-.3.4-.3.7-.4.9-.1.3-.7.6-.7.6s-.4.8-.5 1.1c-.1.4-.5.7-.7 1-.2.3 0 .9.1 1.2 0 .3-1.4.2-1.9.7-.3.4-1.1.5-1.5.4-.4-.2-.6-.2-1.1-.4-.5-.1-.4.3-.7.8-.3.5-1.1 0-1.3-.1-.3 0-1.8.8-2.1 1.1-.2.1-1.9.5-2.3.6-.4.1-.6.1-.9-.2-.4-.4-1.3-1.2-1.3-1.2l-.4-.5c-.3-.4-.4-.2-.7-.1.1-.1.1-.2.2-.4.2-.6 0 0 0-.2s.2-.6.4-1.1c.1-.4.1-.4.3-.7.2-.3.4.2.8.1.5 0 .3-.5.5-.8.2-.4.2-.6.3-.9.1-.3.3-.2.5-.4l.6-.3c.4-.1.5 0 .9-.1.3-.2.6-.4 1-.6.4-.1.6-.3 1.1-.2.5.1.4.1 1-.2.6-.3.1-.3.7-.6.5-.4.6-.1 1.1-.3.5-.2.7-.8.7-.8v-2c0-.6-.1-.8 0-1.1.1-.4.5-.2.7-.3.2-.1.4-.1.9-.3.5-.2.1-.3 0-.8-.2-.5-.2-.7-.2-1.2s.1-.7.2-1.6c0-.8.3-.7.3-.9 0-.2.1-.5.3-.9.1-.3.3 0 .5-.4.3-.2.1-.7.1-.7s0-.3-.5-.3c-.4.1-.3-.1-.7-.1-.5 0-.5-.5-1-.5-.4.1-.4-.4-.7-.6-.4-.2-.3-.4-.7-.8-.4-.4-.2-.5-.3-.9-.1-.4.3-.9.3-.9s.1-.5 0-.8c0-.2.2-.4.5-.8s-.1-.6-.3-1.1c-.1-.6.2-.4.6-.7.4-.3.1-.3.1-.7 0-.5-.3-.7-.7-1-.3-.1-.1-1.1-.1-1.2 0-.2.6-.4.6-.4l.7-.6s.8-.4 1.1-.3c.4.1.5-.4.7-.6 0-.3.5-.5.5-.8.1-.4.2-.6.2-.8 0-.2.2-.6.3-.9.1-.3.3-.4.4-.8 0-.3-.1-.6-.1-.9-.1-.1 0-.5-.3-.7-.3-.2-.2-.5-.3-.7-.2-.3-.3-.2-.5-.3-.3 0-.2-.3-.8-.4-.6 0 0 0-.3-.2s-.4-.5-.5-.9c0-.3-.1-.6-.1-.9s-.5-.6-.3-.6c.1-.1.5-.2.9-.1.4-.1.2-.3.4-.6.1-.3 0-.3-.2-.7-.2-.3 0 0 .2-.3s.9-.1 1.1-.3c.2-.1.5 0 .8.2.3.1.6.2.9 0 .2-.1.6-.4 1.1-.7.4-.3.9 0 .9 0s.7.3.9.2c.3 0 .8 0 1 .1.3.1.3.1.6 0 .3 0 .6-.3.7-.5.1-.4.7-.5.6-.7 0-.2.2-.6.2-.6s0-.5.2-1.1c.2-.6 0-.8.1-1.2.1-.4.3-.2.5-.4.2-.1.5.1 1-.2.4-.3.4-.6.3-1-.1-.4 0-.5-.1-.9s-.3-.6-.3-.9c0-.3.2-.6.3-.9.2-.1 1-.4 1.3-.4.3 0 .8.2.8.2s.7.3 1 .6c.3.2 1 .1 1.3.1.3 0 .8.2 1.1.2.4.1.7.5.7.5s.3.4.2.8c0 .3.7.5.7.5l.9.2s.5.5.5.8c.1.4.6.4 1.1.5.4.2.7.8.9 1 .2.2.7.5.9.6.3.1.8 0 .8 0s.5-.2.7-.2c.2 0 .6.4.8.4.3.1 1 .1 1.2.1.4.1.7.6.7.6s1.2.6 1.5.8c.3.2.8.5 1.2.6.3.1.7.5 1.1.4.5 0 1-.4 1.1-.5.2-.1.5-.2.9-.1.3 0 .5.1.5.1l.5.3s.3.2.7.6c0 0 .3.1.5.1h.8c.3 0 .3.2.5.5.2.2.3.2.6.2.5 0 .3-.2.6-.3.3 0 .3.1 1 .3.5.1.5.8.8 1.1.3.2.8.2 1.1.2.2 0 .5.1.9-.1.4-.1.7.5.7.5s.5.5.6.7c.2.2.9.6 1.3.9.3.2.5.5.7.8s.4.4.8.7c.3.2-.2.8-.2.8s0 .5.1.9c.2.3.4 1.3.4 1.7-.1.4.2.2.2.5.2.2.4.4 1 .3.3 0 .3-.2.5-.5.1-.3.1-.4 0-.7v-.7c0-.3.1-.5.1-.7 0-.3 0-.3-.2-.5s0-.3-.5-.6c0 0 .1-.4-.1-.6-.1-.1.2-.6.2-.6s.1-.4.4-.8c.3-.4 0 0 0-.5s-.2-.3-.5-.6c-.2-.2-.4-.5-.8-.5-.5-.1-.3-.6-.5-.5s-.8-.2-1.2-.3c-.4-.2-.3-.2-.3-.7 0-.5-.3-.6-.5-.8-.3-.1-.2-.5-.2-.8-.2-.2 0-.8.3-1.2.1-.3.4.5.4.5.2 0 .4.1.6 0 .2-.1.6.2.9.3.2.2.6 0 .8.1.3 0 .4.2.7.3.2.3.3.4.7.5.4.1.7-.2.8-.7.1-.5.3-.5.3-.5l-.8-.9s-.3-.4-.7-.5c-.4-.1-.3-.2-.7-.1-.4.1-.8-.4-1.2-.6-.4-.2-1.1-.4-1.5-.4-.5 0-.6-.4-.8-.5-.3-.1-.9-.2-1.3-.2-.4-.2-1.1-.2-1.8 0-.6.1-.7-.1-1.3-.2-.5-.1-.6-.6-.6-1l-.2-1s-.2.3-.5.4c-.4.1-.6.3-1 .6s-.6.1-1.1 0c-.5-.1-.7-.1-1.4-.6-.7-.3-1.6-.5-2-.4l-.8-.2s-.6-.6-1-.9c-.2-.3-.5-.5-.6-.9-.1-.4-.7-.6-1.1-.9-.2-.3-.6-.2-1.2-.3-.5-.1-.7-.5-1.4-.6-.6 0-.4-.2-.8-.5-.4-.4-.7-.1-1.1-.2-.4-.2-.5-.5-1.2-.3-.6.1-.5-.3-1.1-.2-.6.1-.5-.8-.5-.8s-.9-1.3-1.1-2c-.2-.7-.3-.6-.6-.7-.4-.1-.8-.2-1.3-.2s-.1-.6-.1-.6.8 0 1-.8c.3-.7.1-.7.1-.7s.7-.5 1.6-.8c0 0 0 .7.5 1.2.6.6 0 0 .3.1s.5.3.7.6c.3.2.6.6 1.2 1.3.2.3.5.1.8-.7.1-.7 0 0-.4-.5s-.7-1.4-.6-1.7c.1-.4.8 0 .8 0s.7.5 1.1.9c.4.4.7 1 1.1 1.1.3.2.6.6 1.2.8.7.3 1.1 1.1 1.1 1.1l.6.7s.5.3 1.4.5c1 .1.8 0 1.2-.1.4-.1 1.2.8 1.2.8l1.4.2c.8 0 .9.2 1.6.2.6 0 .3.7.3.7s.4.2 1.2.1c.8 0 .5.1 1 .5.4.4 1.5-.1 1.8.2.3.2.9.3 1.7.2.9-.1 2.5 1.1 3 1.4.5.1.5.5.7.8.2.3.4.8.7 1.3.3.4.5 1.2.8 1.8.3.6.4 1 .6 1.3.2.3.8 0 .9.6.2.7.3.7.5.9s.4-.1.9 0 .2.3.7.5c.3.1.3.4.9.6.6.2.9.2 1.1.2.4.1.3.6.5 1.2s1.2.6 2 .8c.8.2 0 .7.2 1 .2.3 1.2.1 1.5.6.4.5 1.1.2 1.9.3.8.1 0 .9 0 .9s-.3.5-.4.8c-.1.4.4.5.9.6.5.1.1.6.3.9.2.3.9.4 1.2.6.3.1.5.3.8.7.3.4.2.8.5 1.2.2.3.4.2 1.1-.3.7-.3.8.2.8.2s.3.4.9.6c.7.1.2-.4 1-.7.7-.3.7 1 .9.8s.3-.4.1-1 .2-.4-.5-.9c-.6-.6-.8-.5-.8-.5s-.3-.4-.6-.7c-.3-.2-.5-.1-.9-.8-.3-.6.8.1 1-.1s.4-.8.4-.8-.4-.4-1.4-.6c-.4-.1-.4-.5-.8-.4s-.7-.3-1.2-.6c-.4-.4-.6.1-1 .2-.3 0-.7-.1-1.1-.2-.4-.1-.1-.6.1-.7s1.2.1 1.2.1.8-.2.9 0c.1.4.6.2 1.1.2.5 0 .9.2 1 .5.2.2.9.6 1.2.4s-.2-.8-.5-1.2c-.4-.5 0 0 .1-.5s.1-.7-.1-.8c-.4-.1-.6-.2-.7-.6-.1-.4-.1-.8-.5-.9-.5-.1-.5-.1-.7-.1-.3 0-.5-.1-1.1-.4-.5-.3-.5-.3-1.2-.6-.6-.2-1.1.9-1.1.5 0 0-.1-.4.1-1.2.1-.7-.1-.6-.3-.7-.3-.1-.7-.1-1.1-.2-.4-.1-.7-.5-.9-.8-.3-.1-.2-.3-.9-.3-.5-.1-.4-.4-.7-.8-.2-.3-.2-.8.5-.8.3 0 .4.4.7.5.4.1.5.3.8.5.4.4.6-.3.9-.3.2-.1.6-.1.7-.8.1-.7 0-.3-.2-.7-.1-.4-.7-.6-.7-.6l-.9-.2-.1-.8 1-.7-.2-.8s.3-.7 1-.7c0 0 .6.4.9.4.4.1.9.3.9.3h.8l.9.2s.3-.2.7-.5l.6-.6.1-.7s.1-1.2.4-1.7c0 0 .8.1 1.1 0 .3 0 .3.2 1.1.2.9 0 0 0 .4.2s0 .3.1.6c.2.2 0 .8 0 1.1 0 .3-.3.4-.7.3-.5 0-.5.4-.8.4-.3 0-.8.2-.8.2s-.6.4-.9.5c-.4-.1-.5.4-.5.4s-.6.1-.8.2.2.7.2.7.6.6.7.8c.3.1.5.5.6.7.2.2.3.9.5 1.1.2.2.4.5.5.8.2.2.6-.7.6-.7s.6.6.7.8c.2.2.5.3.7.8.3.4.5.6.6 1 .1.4.5.1.7.3.2.2.1.8-.1 1.9-.1.4.1.8.1.8l.4.1c.4.1 1.2.1 1.2.1l.7.1s.4.4.8.4c.4.1.3.6.5 1.2.2.5.3.6.3.6l1 .6s.3.7.9 1c.5.3.1.6.5.9.3.4 0 0 .8-.2s.1-1 .2-1.6c.1-.5.6.6.8.9.2.3.7.6 1.4.8.7.3 1.2.6 1.2.6s.8-.2 1.3-.2c.6-.1.4.2.6 0 .2-.1.1-.4 0-.7 0-.3-.5-.6-.8-1.1-.3-.4-.4-1.7-.4-1.7s.3-.2.8 0c.5.1 1 .3 1 .3l1 .6c.5.3 1 .5 1.3 1 .4.5.6.4 1 .7.4.4.3-.2.7-.5l.1-.1c-23.5-25.5-54-45.1-89.3-55.7 0 .1-.1.1-.2.2-.3.4-.5.2-.6.4-.1.3-.5.5-.4.9-.1.4-.5.4-.5.4s-.4-.1-.6-.4c-.2-.3-.9-.3-1.2-.4-.3-.1-.4-.1-1 .2-.6.3-.6.1-.9.1s-.2-.3-.5-.5c-.2-.2-.5 0-.9.1s-.4.3-.7.3c-.2.1-.4.3-.3.9.1.6-.3.2-.5.5-.1.4 0 .5-.1.7-.1.4-.5.7-.8.7-.4.1-.6 0-.6 0l-.3-1.1s-.3-.2-.7-.6c0 0-.3 0-.4.3-.2.1-.4-.1-.6 0-.3 0-.6.3-.6.3l-.5-.1s-.2-.5-.3-.7c-.2-.3-.5.2-.8-.1-.3-.2-.6-.2-.6-.2s-.4-.2-.8-.2c-.4-.1-.3-.1-.7-.1-.5 0 0 0-.4.1s0-.3-.6-.9c-.6-.6-.7-.6-.7-.6l1-.1.2.2c.2.2.7.5 1 .5.2-.1.8.1 1.2.3.3.2.7.1 1-.1.2-.1-.2-.3-.3-.4l-.2-.8c-.1-.4-.4-.4-.7-.6-.4-.2 0 0-.3-.1s-.4-.2-.6-.2c-.2 0-.6 0-1.1.3-.4.1-.6.1-.7-.1l-.6-.2s0-.5.1-.7c.1-.4 0-.3-.1-.6 0-.3.1-.4.4-.6.4-.3 0-.7.2-.8.1-.1.1-.3.1-.5-2.3-.5-4.6-.9-6.9-1.3.1.6-.3.3-.5.3-.3 0-.2.1-.5.2-.2.1-.5.5-.5 1 0 .2.1.6.3.9.1.4.2.2.3.2.2 0 .5-.5.5-.7 0-.2.1-.5.1-.5s.2-.3.7-.3c.5 0 0 0 .4.2.2 0 0 .1 0 .1s-.6.1-.9.1c-.4.1.1.4.2.7 0 .2-.2.3-.6.3-.4-.1-.6.1-.7.5-.2.4 0 0 .5.5s.2.7.3 1.1c.1.4.3.6.7.8.4.2.3.1.9.3.5.1.6.6.5.9 0 .3.8.7 1.4.6.5-.2.3.4.8.5.5.1.4.2 1 .1s.3.2.3.7c0 .5-.1.5.1.8.2.2.2.2.9-.1.7-.3.5 0 .8.1.4.1.2.3.3.6.2.2.4.5.4 1.3.2.7.4.4.6.2.4-.1.5.3.9.3.5 0 .4.5.3.7 0 .2-.3.5.1.9.3.4.1.4 0 .7-.1.3-.6 0-1.5-.3-.2 0-.5 0-.6.1-.2.1-.4-.2-.6 0-.2 0-.3.5-.2 1.1 0 .5.3.9.1 1.1-.2.1-.4-.1-.8 0-.3 0-1.1.3-1.1.3l-1.1.6-.2.6c-.2.6-.1.7-.1 1.4s-.2.6-.4.6c-.3 0-.5.2-.6.4-.1.3 0 .3.5.6s.1.8.6 1c.5.3.1.9.3 1.1 0 .3.1.8 0 1.1-.1.4-.1.4-.1.5 0 .2.6.4.7.8.1.4 0 0-.2.4s-.4-.1-.5-.1c-.3-.1-.5.2-.5.2s.4.5.7 1-.1.5-.4.6c-.2.1-.5.2-.7.3-.1.3-.3.5-.2 1.1s-.7.6-1.3.9c-.6.3-.7.6-1 1-.2.4.5 1.4.5 1.4s.5.5.7 1c.1.4.4.4.4.4s.2.2 0 .8c-.2.6-.4.3-.7.6-.3.2.1.4.1.4s-.2.3-.7.6c-.3.2-.3.4-.6.6-.3.2-.1.4-.1.5 0 .3.2.3.6.6.2.3.2.3 0 .5s-.2.1-.7.3c-.5.2-.5.4-.8.7-.3.2-.6.1-.9.3-.4.1-.5 0-.7.2s-.3-.1-.6-.4c-.2-.3-.5-.1-.6-.4 0-.3-.4-.1-.5 0-.2 0-.6.3-.8.4s-.7.2-1.2.3c-.6.1-.1.4.5.8.3.1.3.1.8.4.5.3 0 0 .3.2s.8.4.8.4.3.1.6.4c.2.3.5.5.5.5s.5.5.5.9c-.1.4 0 0-.2.1s-.3.2-.9.3c-.6.1-.5.2-.8.2-.3 0-.2.1-.4.3-.1.1-.2.3-.5.5s-.6 0-.6 0-.3-.2-.3-.7c0-.5-.9-.2-.9-.2l-1 .2-.4.8-.5.7h-.8s-.7.2-.8.2c-.1.1 0 .7-.2.8s-.5 0-.7.2c-.4.1-.4.3-.4.3l-.1.7s.4.5 1 .6h.3c.3 0 .3.4.6.6.3.1.3.6.5.8.3.1.5.8.5.8h.9c.4.1.5.1.9 0 .3 0 .6-.7.6-.7s.5 0 .8.1c.4.1.5-.2.9 0s.6 0 .6 0 .6-.1.9-.3l1-.4c.3 0 .2-.1.7-.2.4-.1.4.2.7.3.3.1.2.5.5.8.3.2.3 0 .6 0 .4.1.3.4.6.6.3.1.3.4.5.8.2.5.2.3.5.3s.2.2.5.3.7.1 1.2.1.6-.1.9-.3c.3-.2.8 0 1.1 0 .4.1.3.4.3.7 0 .3.5.9.5.9s.3.6.5.9c.2.2.7.1 1.4.2.5 0 0 .8 0 .8v1.2c0 .3.1.4.4.5.3.1.4.5.7.6.3.1.2.3.3.6 0 .3.3.7.5.9.2.2.2.5.7 1 .3.4.2.7.3 1.1s.6 1.2.8 1.5c.2.3-.1.4-.1.7-.1.3-.6.6-.9.8-.3 0-.7.5-.7.5l-1 .6s-.9.3-1.1.3c-.1.1-.5 0-.6-.2s-1.2.3-1.5.4c-.3 0-.8 0-1.3.2-.4.1-.2.3-.3.5 0 .2-.6.3-1.2.5-.5.2-1.4.7-1.7.9.2.4-.8-.1-.8-.1l-1.3.4s-1-.1-1.2.1c-.2.1-.5.2-.8.4-.3.2-.5.5-.9.5-.5 0-1.6.6-2 1-.2.3-.6-.4-.8-.5-.3-.1-.6 0-.9-.2-.3-.1-.5.4-.7.5s-.5 0-.5 0l-.9.1s-.5.5-.6.7c-.1.3.2.7.3.9.2.2.1.6.1.6l-.9.1-.7.2s-.6 0-.7.6c0 .7-.5.5-.7.6s-.3.4-.3.7c.1.1.3.7.3.7s.5 0 .6.2.3 0 .6-.1c.2-.1.5.1.5.1l.3.2.5.3s.3.2.5.5c.2.2.3.6.3.7.2.2.3.4.5.6s.1.6.2.8c.2.2 0 .7.1.8.2.2.4.2.8.2.3.2 0 .5.2.8.2.2.2.3.6.6.3.2.4.1.6.2.3.1.2.3.2.3s.2.5.2.8c.2.2.3.9.3.9s.1.6.3.9l.4 1c.1.4.1.6.3 1.1l.4 1c.1.4.1.6.1.9s-.2.6-.3.7c-.2.1-.2.4-.3.7-.1.3.1.4.3.7s.4.5.4.8c.1.1.1 1.1.1 1.1s.3.4.7.6c.4.2 0 0 .4.5s0 0 .4.2.3 0 .7-.3c.4-.3.2.3.5.5.3.1.3.2.7.6.3.2.2.7.1.9 0 .2.2.5.5.8.2.3.4.4.5.8 0 .3.1.6.2.7v.8s.4.5.7.8c.3.2.2-.1.8 0 .5.1 0 0 .5-.2s.3-.2.4-.6c.2-.3.5 0 .6 0 .2 0 1 .1 1.7-.1.6 0 .5-.4 1-.7.3-.4.4-.6.7-1 .3-.4.4-.1.9-.1.4.1 1 .1 1.3.2.3.1 1.1.2 1.3.3.3.1.4.5.5.9.1.4.7.1 1.1.4.3.2.3.7.3.7s.8.5 1.1.5c.3.1.5 0 .8 0-.3.3-.5.7-.5.7s.1.8.3 1.1c.2.3.2 1 .2 1s-.1 1-.3 1.3c-.2.3.2 1.9 0 3.1-.3 1.2-.1 1.2-.1 1.7s-.1.5-.3 1.2c-.1.5-.3.5-.8.9-.3.4-.5.2-.9 1s-.9 1-1.1 1.1c-.4.1-.6.3-.8.6-.2.3-.6.9-.4 1.4.2.5-.3.7-.5 1.3-.3.5-.4.6-.5 1.1-.1.5.2.8.6 1.3.4.5.1.4 0 .9s-.1.5-.1 1-.3 1-.6 1.4c-.3.4.5 1.9.5 1.9s.1.8.5 1.1c.3.4.5 1.1.5 1.1l.7 1 .8.2s0 .3.2.8c.1.4.1 1.2.1 1.5 0 .3-.2.9-.2 1.5-.1.5-.3.9-.5 1.3s-.3 1.3-.5 2c-.1.5-.5.8-1 1.3s-1.1 1.9-1.4 2.6c-.3.7-1.3 1.3-1.4 1.6-.1.3-1.4.7-1.8 1-.4.3-1.1.9-1.1 1.3-.1.4-.1.7-.1 1 0 .3 0 .8.1 1.7.1.9-.2 1.1-.1 1.9.1.8 0 1.1-.2 2.2s-.5 1.1-1 1.7c-.6.6-1 1.5-1 1.5s.2 2.3.2 3c.1.8.3 1.6.4 2 .1.4.1.8.2 1.4.2.7-.1 1.2-.2 1.7s-1 1.3-1.2 1.7-.3.7-.6.9c-.2.3-.3 1.2.1 1.9.3.7-.6.6-.5 1.3.1.8.6 3.4.7 3.5.2.2-.4.1-.6.1-.3 0-.5.7-.5 1.1 0 .5-.3 1-.3 1s-.1.7-.1 1.5c.1.8.6 1.2.7 1.6 0 .5-.1 1.2 0 1.4.1.4.5.6.9.8.3.1.8-.7.8-.7s.9.2 1.3.2c.4.2.7.6 1.1 1 .5.3.7 1.9.8 2.5.1.6-.3.2-.3.9 0 .5.3 1.3.3 1.3s.5.3.7.6c.2.3.1.8.8 1.4.7.5.4.4.9 1.1.5.8.6 1 .8 1.7s.6 1.2.7 1.9c.1.8-.3.7-.4.9-.1.3.2 1.2.2 1.6s.3 1.1.2 1.4c0 .3-.2.8-.1 1.4.1.6.2.8.6 1.5.3.7.1 1.1.2 1.6.2.5-.8 1.8-1 2.4-.1.7-.9 1-.9 1l-.6.7s.2.3.5.3.5.5.7.6c.2.2.8.5 1.1 1 .2.3.5.3.8.5.4.4.4.4 1.1.4.6 0 .4.2.5.6.1.6 1 .7 1.5 1 .5.3-.6.3-.6.3s-.9-.2-1.1-.5c-.2-.3-.9-.2-.9-.2s-.2.6.4 1.3c.6.7.3 1.3.6 1.5.2.3.8.4 1.6.2s-.2.4-.5.5c-.4.1-.7.3-.6.7.1.4.1.4.3.7.3.2.9 0 1.4 0h.5s.1 1.1.4 1.2c.3.1.3-.2.7-.6.3-.2.4.1 1.3.3 0 0 .6-.1 1.1-1.1.2-.3.5-1.1 1-.8.5.1.2.3.5.8.3.4-.6.6-.8.7-.1.3-.2.9-.2.9s.4.8.5 1.1c0 .3 1.4.6 1.4.6.1.4.7.3 1.1.2.3 0 .5.1.8.1.2-.1.4.8.5 1.2.1.4.6.6 1.1.4.6-.1.7.1.7.1s.8.7 1.4.8.7.1 1.3.2c.5.1.6.9 1 1.2.4.4 1.2.4 1.2.4s-.4.3-.1.5c.3.1-.1 1.4-.1 1.4s.2.5.5.8c.4.4.3.7.5 1.1.1.4.9.8 1.3.9l1.2.6s.7.1 1.2.4c.5.1.6-.1 1.2-.3.7-.3.4.2.9.6.6.6.6.4.9.6s.6.4 1 .6c.4.2.6.4 1.4.6.8.2 1.5-.3 1.9-.2.4.1.7.3 1 .5.3.1 1.1 1.3 1.3 1.5.3.1 1.1.2 1.5.1.4-.1 1.6.2 2.1.5s1.5.6 2.2.7c.7.1 1.5.3 1.9.3.5 0 .9.6 1.2.4.2-.3.5-.5.8-1.2s.5-.4.8-.7c.2-.3.3-.4.7-.8.3-.4.5-.4.8-.9.3-.5.7-.8 1.1-1.4.4-.6.6-.7.9-1.1.3-.2.5-.2.9-.3.4-.1.8 0 1.5-.1.8 0 .7-.2.8-.7.1-.5.3-.5.6-.6.4-.1.7-.5 1.1-.6.4-.1.9 0 1.6 0 .5.1 0 0 .3.4s.4-.1 1-1c0 0 .9.2 1.3.3.4.2.5 0 .9 0s1.2.1 1.2.1.9-.1 1.2-.1c.4.1.3-.2.5-.4s.2-.4.1-.7c-.2-.2.1-.5.3-1 .2-.4.6-.6 1-.8.3-.2.3-.2.7-.5.3-.2.6-.3.9 0 .3.1.8 0 1.2-.3.3-.2.2-.4.6-1.2.4-.8.1-.5.6-.9.4-.3 1-.6 1.5-.7.5-.2.9-.1 1.2-.7.4-.6 0-1.1.2-1.6.1-.3 1.1-1.1 1.5-1.2.4-.1 1.3-.9 1.3-.9l1-.6s1.3-.6 1.6-.6c.3 0 1.4-.7 1.7-1 .2-.3 1.3-.2 1.5-.3.4-.1.8 0 1.1.2.3.2.9 0 1.2.6.3.7.9.4 1.4.6.6.4.7.6 1.2.8.5.1.3.7.3 1.3-.1.5 0 .8.3 1.4.4.5 0 0 .3.1s.5.6.6 1.2c.2.5.7.3.7.3s.6-.3.9-.5c.4-.1.4-.3.5-.7.1-.3.3-.4.3-.4s.6-.6.8-.4c.3 0 .3-.2.9-.3.5 0 .8 0 1.3-.1.6-.1.8-.9 1.4-1.3s-.3-1.3 0-1.6c.1-.3.8 1.2.9 1.5.2.2.8 0 1.1.4.2.3.2 1 .5 1.2.3.1 1-.6 1-.6l.4.8c.2.2.7 1.3.8 1.7.1.4.5.8.2 1-.3.2 0 .3.2.8.1.4 0 .8-.1 1.2-.1.4-.3.5-.3 1s.5 1.1.3 1.8c-.1.7 0 0-.3.5s0 .7-.2.9c-.1.3-.4.1-.6.6-.2.4.1.6.1.9 0 .3.7.3.7.6s.4 1.2 0 1.3c-.4.1-.4 1.2-.4 1.2v1.6s-.3.4-.3.7c0 .3.1.8 0 1.4.1.6.1.9-.4.9-.6.1-.4.3-.4.3s.1 1.1.3 1.4c.2.3.4.8.6 1.2.2.3.3.7.5.9.2.2.3.6.6.9.3.2.6.4.9.8.3.4.5.9 1 1.7.5.8.8 1.4 1.3 1.7.6.4.7 1 1.3 1 .6.2.7.8 1.2 1.4.4.5 0 1.1.5 1.4.5.3.3.7.7 1 .3.2-.2.9-.2.9s.2 1 .9 1.8 0 0 .3.2-.3.5-.4.9c-.2.4.2.8 1 1.6.7.8 0 0 .2.3s.2.7.3 1.4c.2.7.2 1 .4 1.7.1.6.3.9.6 1.8.4 1 0 .8 0 1.6s-.6.7-.8 1.1c-.2.4.2 1.6.4 2.4.2.8.3.9.5 1.6.3.7 0 .5.5 1.1.5.8.1 2-.2 2.6-.4.6.2.8.1 1.3s-.4 1.1-.7 1.9c-.4.9-.5 1.1-.8 2-.3.9-.6.7-.8 1.7-.4.9-.4 1.2-.5 1.8-.1.5-.8 1.2-1.1 1.8-.4.6-.4.9-.2 1.7.1.8.4.5.5 1.1 0 .5-.1 1-.2 1.5s-.4 1.4-.8 2.3c-.3.9-.5.8-1 1.2s-.4.8-.2 1.9c.3 1.3-.6 2.5-.4 3.5 0 .9-.5 1-.8 1.5-.3.5-.5 1.1-.2 1.6.3.6-.1.7-.1 1.2-.1.4.5 1.2 1 1.9.4.5.2.8.7 1.6.2.8.5.9.6 1.8.2.8 0 .9.5 1.9.5.9-.3 1.2-.2 2.2 0 .9.1 1.3.5 2.1.3.7.1.9.6 1.8s-.6.6-1.1 1.3c-.5.7-.4 3.2-.5 4.4-.1 1.2 0 .9.1 1.9 0 .9-.1.5-.1 1.4.1.8-.3.9-.7 1.8-.3.9-.2.8-.5 1.6-.2.8-.4 1.1-.5 2.7-.1 1.7-.3 1.5-.4 2.2 0 .7.3 2.4.5 3.5.4 1 .4.8.3 1.6-.1.7-.1.5-.3 1-.2.4-.5.5-.4.9 0 .5-.5 1.1-.6 1.6-.1.5-.7.2-.8.9-.1.7.5 1.9.6 2.8v.2c23.8-24.3 41.8-55 50.8-90.3 4.1-16 6.1-32.1 6.3-48 0-46-15.9-89.8-43.8-124.7 1.8 1.6 2.4 3.2 2.5 3.7zM77.9 357.3c.4.1.9.3 1.1.1.1-.2.1-.8.1-.8s-.1-1-.4-1.2c-.3 0-.5-1-.5-1l-.1-1.3c.5-.5.5-1 .9-.6.4.5 1.3.6 1.3.2 0-.3-.1-1.2-.1-1.2s-.9-.5-.9-.7-.5-.2-.8 0 0 .3-.3.5c-.3.1-.7.2-.8 0-.1-.2-.1-.7-.5-.8-.4-.1-1.1-.1-.9-.5.1-.3-.3-.9-.3-1.3 0-.3-.5-.8-.5-1 .1-.3.3-.9.5-.7.3.2 1.1.8 1.1.8s.3.8.5.8c.4.1 1.1.3 1.5.3.4.1 1.5.3 1.5.3l.8-.1c.7-.3.5-1 .5-1l-.8-.8c.1-.7 0-1.6 0-1.6-.5-.5-.9-1.5-.9-1.5.7 0 1.7.3 2.4.6.7.2 2.1.1 2.4.2.3 0 .9-.3 1.6-.1.5.2 2.3 0 2.3 0l1.5-.3.4-1.3.9-.5.3-1.2-.1-.7-.1-.9-1.1-.1-.4-.5.4-1.3s-.1-1.2-.4-1.2-1.2-.5-1.2-.5-.7-.8-.9-.9c-.3 0-.8-.5-.8-.5l-.4-.6-.4-1.3s.8 1.4 1.5 1.6c.7.2 1.6.3 1.9.6.3.2 1.1.3 1.3.5.3.2 1.1 0 .9.3-.1.3 0 .3.4.6.4.2.5.2.9.1s.8-.1 1.1-.1.5 0 .8.1c.3.2-.1-.3.3.2.4.6.9.6 1.3.6s.9-.3 1.3-.5c.5-.1 1.2-1.8 1.7-1.7.5.1.8 0 1.2-.3.4-.3.5-.7.7-1 .1-.2.3-.9.5-.7.3.2.9-.7.9-.7v-1.3s.3-.8.5-.9c.3-.1.5-.5.8-.6.3-.1.4-.8.8-.6.4.1.8-.1.9-.5.1-.3.1-.7.1-.7l.8-.1s.8-.2.7.1c-.1.3-.4 1-.4 1l-1.2.7s-.8.2-1.1.3l-.8.5c-.4.7-.8.6-.7.8.1.2.8.6.9.2.1-.3.1-.9.5-.9.3 0 .7-.1 1.1-.2.3-.1 1.2-.7 1.2-.7s.4-.2.7-.5c.3-.2.7-.1.7-.5 0-.5.1-.9.1-.9s.1-.5.3-.7c.1-.2.4-.6.7-.7.3-.1.4-.2.7-.3.3-.1.3-.1.7-.3.4-.1.5-.1.7-.3 0-.2 0-.6.4-.6s.8 0 .9-.3c.1-.3.7-1 .7-1s-.3-.6-.3-.8.1-1 .4-1.3c.3-.2.4-.8.4-.8s.1-.5 0-.7c-.1-.2-.1-.7-.3-.9-.3-.2-.1-.7-.1-.7s.1-.2.3-.3c.1-.1.3-.1.3-.3 0-.2-.3-.7 0-.8.3-.1.7-.3.7-.3s.7-.2 1.6-.5 1.1-.3 1.5-.6c.4-.2 1.2-.2 1.6-.2s.8-.3.9-.6c.3-.2.9-.5 1.5-.3.5 0 1.7-.2 2.3-.2s1.1.1 1.5 0c.4-.1.9-.5 1.2-.7.3-.2.7-.8.9-.8.3 0 .5-.2.9.1.4.3 2.1.2 2.4.3.3.2 1.7.2 2.1.5.4.2 1.7.7 2.3.6.5-.1.7-.5 1.2-.7.4-.2 1.2-.3 1.9-.2.5 0 1.1.1 1.5-.2.4-.3.5-.8.5-1.2l.4-1.2.7-.7s1.1-.3 1.3-.6c.4-.2.9-.8.9-.8s.4-.8.4-.9c0-.2.3-.7.8-.6.5.1 1.2.2 1.5 0 .3-.3.4-.9.4-.9s-.4-.8-.1-1.4l.4-1.3c0-.2.1-.6.5-.6s.7.1 1.1-.3c.4-.5.7-2.3 1.1-2.7.4-.2 1.9-1.7 1.9-2.1s.1-1.3 0-1.7c-.1-.5.1-1.8.4-1.8.3 0 .7-.5.5-.8-.1-.3-.3-1.2-.1-1.4.3-.1.7-.7.9-.7s-.3-.9-.3-.9l.5-.5s.4-.8.5-1.2c.1-.3-.1-1.4.4-1 .4.3 1.1.7.9 1.3-.1.6.9.8 1.1.6.1-.2.7-.8.9-1.2s.9-.2 1.3-.5c.4-.2 1.7-.9 1.7-1.3s.4-.8.4-1 1.3-.8 1.3-.8.8-.1 1.5-.3c.8-.2 3.6-2 4-1.8.5 0 1.2-.8 1.9-1.3s1.3-1.2 1.7-1.4c.4-.2 1.2-.6 1.3-1 .3-.5.8-1.2.8-1.5s1.3-1.6 1.2-2.1c-.4.7-.7.2-.5-.5 0-.7-.5-1.7-.4-2 .1-.2.1-.6.3-1 .1-.5.5-.8.5-1-.1-.2.5-.2-.1-.6-.7-.2-.9-.5-1.5-.5-.5 0-1.5-.1-2-.3-.4-.1-1.6-.3-1.9-.6s-.8-.2-.9-.5c-.1-.2-.8-.8-1.1-1-.3-.2-3.3-3.5-3.6-3.7-.3-.2-2-1.3-2-1.8s-.4-.7-.5-.9c-.1-.2-.5-.6-.7-.9-.3-.3-.5-.6-.8-.8-.3-.2-.3-.3-.8-.5-.4-.1-1.5-.1-1.9-.2-.4-.1-2.9-.7-2.9-.7s-.8-.1-1.2.1c-.4.2.1.6-.4.2l-.9-.9c-.3-.2-1.2-.5-1.6-.7-.4-.1-.9-.5-1.2-.5-.3 0-.5-.2-.7-.6-.1-.3-1.9-.8-1.9-.8s-.4.2-.7.1c-.3 0-1.7.3-2 .2-.3-.2-.8.5-.9.1-.1-.3.1-.8-.1-.8s-.5.2-.7.6c-.1.3 0 1-.4.9-.4-.1-.7-.6-.7-.6s0-.7.1-.8c.3-.1 1.2-.6 1.3-.8.1-.2.1-.9.1-1.2 0-.2-.4-1.6-.7-1.7-.3-.2-1.7-.5-2.3-.7-.5-.2-1.9-.8-1.7-1 0-.2-1.7-.3-1.9-.6-.1-.3-.7-.7-.9-.8-.3-.1-.9-.1-1.1-.3-.1-.2-.8-.8-.8-.8l-.7-.3s-1.1-.3-1.5-.6c-.3-.1-1.2-.2-1.2-.2l-1.1.7s-.3.7-.5.8c-.3.1-.7.5-.8.7-.1.2 0 .7-.3.6-.1-.2-.7-.7-.9-.7-.3.1-.8.7-.8.7l-.8.2-.9.5s-.4-.7-.1-.7c.3 0 .5-.5.4-.7-.3-.1-.9.1-1.1-.1-.1-.2.1-.6.4-.6s1.2.2 1.2.2.3.2.5 0c.3-.1.7-.3 1.1-.5.4-.1 1.1-.7 1.1-.7s.5-.6.7-.8c.1-.3-.1-.8-.1-1 0-.2.3-.1.4-.5.1-.2-.8-.6-.9-.6-.3 0-1.1-.1-1.5-.1-.3 0-1.2-.1-1.2-.1s-.8-.2-.8-.6c0-.2-.5-.2-.9-.5-.4-.1-.5-.2-1.1-.1-.4.1 0 .1-.4.1-.5 0-.7-.6-.9-.5-.7.2-1.3 1.6-1.3 1.8s.3.2-.1.6c-.3.2-.3.7-.3.7s-.8-.5-1.2-.6c-.3-.1-.8 0-.8 0h-.8l-.9.5-.7.2-1.1.2-.8-.2-.5-1s.8.1 1.1.2c.3.1 1.2 0 1.2 0s.8-.2.8-.6l.1-.6c0-.2.5-.6.8-.5.3.1.8-.6.8-.8s0-.7.3-.7.9-.2 1.2-.3c.3-.1.5-.6.5-.6s.4.2.5.2c.3 0 .9.1 1.1-.2.1-.2.4-1.2.8-1.2s.9-.8 1.5-.9c.5-.1.1-.8.8-1.2.7-.2.5-.8.3-1.2-.3-.3-.5 0-1.2-.3-.5-.3-1.1-.6-1.3-1.2-.3-.6-.7-.6-.5-1.2.1-.6-.1-.9-.3-1.5-.1-.6-.1-.8-.1-1.4 0-.5-.4-.8 0-1.2.4-.3.7-.5.5-.9-.3-.5.1-.6-.1-1-.3-.5-.3-.7-.7-.7-.3-.1-.5 0-.9-.1-.3-.1 0 .1-.3-.1-.4-.1-.1-.6-.7-1.3-.4-.7-1.3-1.3-1.9-2-.4-.7-.8-1.4-1.3-1.7-.5-.3-2-.7-2.3-.7-.3 0-1.1-.1-1.2-.5-.1-.3 0-.6-.3-1-.3-.5-.8-.9-1.2-.9-.3 0-.5.3-.8.3-.3 0-.8-.2-.9-.5-.1-.2-.1-.6-1.1-.8-.8-.2-.8-.2-1.1.1-.1.2 0 1.2-.4.7s-.9-.7-.9-.9.5.2 0-.2c-.4-.5-.7-.7-1.3-.7-.8 0-1.1.3-1.1.3s.4.7-.1.7-.9-.2-.9-.5-.1-.6-.7-.7c-.7-.1-1.6-.2-1.6-.2s-.5-.2-.8-.3c-.3 0-.4.8-.7.7-.3-.1-.5-.5-.4-.8.1-.3.5-1.3.1-1.5-.4-.2-1.2-.9-1.2-.9s-.7-.8-.9-.9c-.3-.1-.8-.5-1.1-.6-.3-.1-1.5.1-1.5.1s-.1.3 0-.5 1.2-.6.4-2.1c-.9-1.5-2.4-2.7-3.3-3.3-.9-.7-1.1-1.5-1.9-1.7-.8-.3-.9-.6-1.3-.6-.5 0-.7.2-1.3.1s-.9-.5-1.1-.3c-.1.2-.3.6-.9.5-.5-.1-1.6-.8-1.1-.9.4-.2.8.5 1.3.1.4-.3-.1-.7.7-.9.7-.2 1.1-.3 1.2-.9.1-.6.5-.6 0-.9-.5-.3 0-.7-1.2-.9-1.2-.3-1.3.1-1.7-.6-.4-.7.5-.2-.4-.7-.9-.5-.9-.5-1.2-.5-.3 0-.3.7-.8.5-.5-.2-.7-.6-.7-.9 0-.3.3-.7-.3-.7-.5 0-1.2 0-1.2-.5 0-.3.5-.8.8-.6.3.2 1.6.6 1.9.5.4-.1.7-.5.5-.8-.3-.3-.8-.5-1.6-.5s-1.5-.2-2-.3c-.4-.1-.7-.7-1.2-.8-.5-.1-1.3.1-1.3.1s-.8.2-1.1.2.1-.6-.7-.5c-.9.1-1.1.9-1.5.9-.3 0-1.1.2-1.1.2s-1.3.1-1.7.1c-.5 0-1.1-.3-1.3-.5-.3 0-.9-.8-1.2-.8s-.9-.5-.8-.9c0-.5 0-.7-1.1-.7-.9-.1-2.3-.2-2.9-.3-.8 0-1.3-.1-2.1-.2-.7-.1-1.7 0-2.1-.2-.4-.2-.8.2-.5-.6.3-.9-.4-1.8-.5-2.3-.1-.3.4-1.2-.3-1.3-.5-.1-1.1-.3-1.5-.5-.4-.1-1.6-.3-1.6-.3s-1.2.1-1.2-.1-.1-.5-.3-.9c0-.5.3-.7 0-1-.1-.3.4-.6-.1-.8-.5-.2-.1-.3-.5-.2-.4.1-.7.1-.7.3.1.2-.1.3 0 .7.3.3.1.5.1.9 0 .5-.4.7-.4.7-.9.2-1.6.1-1.6.1s-1.5 0-2.1.1c-.8 0-1.1.1-1.3.5-.4.5-.3.8-.4 1-.1.2-.3.8-.1 1l.4.8s.1.5.3.7c0 .2.3.3.3.7.1.3 0 .8 0 .8s.3.2 0 .5-.7.6-.7.6-.3.1-.7.2c-.4 0-1.2 0-1.1-.1 0-.2 0-.2.3-.6s.1-.9-.3-.9-.4.3-.8.1c-.3-.2-.3-.8-.4-1 0-.2-.4-.7.1-.8.5 0 .9-.5.9-.5l.1-.6c.5-.5 1.2-.5.9-1.7-.3-1.3-.3-2-.4-2.2-.1-.3-.4-.8 0-.7.4.1.7 0 1.1.2.4.2 1.1-.1 1.2-.2.1-.2-.4-.5.3-.5.7.1.8 0 .8-.9s.3-.8-.3-1.2c-.5-.3-.7-.1-.9-.6-.3-.5-.7-.3-1.5.1-.8.5-1.1.5-1.7.7-.5.2-.9-.1-1.2.5-.4.7-.4.6-.9.7-.4.1-.5.5-1.5.3-.9-.1-1.2.2-1.6 0-.5-.2-.5 0-1.2-.2s-.7-.1-1.1-.2c-.3-.1-.4-.1-.7.2s-.5.8-.5 1c0 .2 0 .5-.3.6-.4.1-.3.7-.4.1-.1-.6.1-.9-.3-1.2-.3-.2-.1-.7-.7-.6-.5.1-.5.2-1.1.3-.5.1-.8.2-.9.5-.1.2.1.6-.3.7l-.8.2s-.3 3.3-.8 3.3c-.5.1-1.5.1-1.9.6-.4.5-.9.8-1.6.8-.8 0-.9.5-.9.5s0 .8-.4.8c-.4.1.1.6-.4.1-.4-.6-1.5-.5-1.5-1-.1-.6-.4-.9-.9-1.4-.5-.6-1.3-.5-1.5-1.2-.3-.7-1.2-1.2-1.5-1.3-.1-.2-.5-.2-1.1-.2-.5 0-.7.1-.7-.1-.1-.2-.3-.8-.5-.9-.3-.1-.5-.1-1.1.1-.4.2-.8.5-1.2.6-.4.1-.9.3-.9.3s-.5.2-.9.1-1.1-.3-1.2-.2c-.3.1-.7.3-.9.5s-.2 1.4-.5 1.1c-.1-.2-.5-.5-.7-.6-.3-.1-.8-.7-1.2-.6-.4 0-.9.2-1.2-.3-.1-.6-.3-1.4-.1-1.6.1-.2-.4-1-.7-1.3-.4-.2-1.1-.8-1.1-1-.1-.2-.5-.7-.8-1-.3-.3-.4-.6-.7-.8l-.2-.2c-.2 1.7-.4 3.4-.5 5.1.4.6.8 1.2.6 1.5-.3.5-.5.9-.1 1.3.4.3 1.1.5 1.2.6.3.1.8.5.7.8-.1.5.3.7.5.7.3-.1 1.3-.6 1.5-.2.1.2 2.1.9 2 1.3-.1.3.1.7.5 1 .4.3.8.2 1.1.2.3 0 .5.7.5.9 0 .3.7.8.9 1.3.1.5.8-.2 1.3-.1s.5-.8.9-.6c.4.2.8 0 .7-.3-.1-.2-1.3-1-1.2-1.2 0-.2-.1-.8-.1-.8s0-.6.5-.5c.5.1 1.3-.1 1.5-.3.1-.2.7-.3.7-.7s.4-.8.4-.8.1-.2.7-.2c.4 0 .7-.1 1.1.1.4.1.9.3.9.8s.4.7.7.8c.3.1.8.1.7.6 0 .3.5.5.1.9-.4.3.5.5 0 .7-.5.2-1.3.7-1.1 1 .4.3 1.5 1.2 1.3 1.5-.1.3.4.9.8 1.4.4.3 1.1 1.7.9 2.1s.1 1.7.1 2.3c-.1.6.3.8-.1 1.5-.5.7-.5 1.4-.5 1.7 0 .2.4 1 .1 1.7-.3.7-.4 1.7 0 2s1.1.5.7.8c-.4.3-.7.6-.9.8-.1.2-.7.6-.8.9-.1.3-.4.6-.5.8-.1.2-.4.6-.4.6l-.7.3-.9-.2c-.3-.1-.5-.1-.8.1 0 0-.3.8-.1.9 0 .2.1.6-.1.8-.3.1-.8 0-.8.7 0 .8.3 1.6-.3 1.6-.5 0-.9-.1-1.7 0 0 0-.7.6-1.2.5-.5-.1-.8.1-.8.5 0 .3.5 1.2.3 1.4-.4.1-.3 1-.5 1-.3 0-.9.2-.9.7 0 .3.4 1.2-.1 1.3-.4.1-.7.7-.9.8-.3.1.5.6.3 1.2-.3.6.3 1.3 0 1.6-.3.3-.5 1.4-.3 1.7.1.3.7.8 1.3 1 .7.2.7.9 1.2.6.5-.3 1.3-.5 1.2 0-.1.5-.1 2.1-.8 2-.7-.1-1.3-.1-1.7.3-.5.5-.9 1-1.7 1.4-.8.3-.4 1.6-.1 2.3.1.7.1 1.5.7 2 .5.5 1.5 1.6.7 1.6s-1.1.6-.8.8c.4.2 1.6.7 1.7 1.3.1.6.9 1 1.6 1.5.7.3 1.5.7 1.5 1.3.1.7.1 1.2.1 1.7-.1.6.5.8.8 1.4.3.6 1.5.7 2 2.2.7 1.5 3.1 6.3 4.9 9.2 2 2.9 4.7 8.1 4.9 8.9.3.8 1.2 3.2 1.7 3.8s13.3 9.8 14.1 10.7c.8.9.5 1.5 1.2 2 .7.6 3.1 1.4 3.1 1.8 0 .6-.3 1.4-.1 2 0 .6.7 1.8.9 2.3.3.3.5 1.2.4 1.7-.1.6 0 2 .3 2.4.3.5.8 1 .5 1.5-.3.6.1 2.1-.1 3-.3 1-.3 3.5.1 4.6.4 1.2 1.6 2 1.1 2.8-.5.8-.9 1.2-.7 1.7.3.6 1.5.5 1.1 1.5-.4 1-.1 2.1-.4 3.2-.3 1.2-.8 3.2-.4 3.5.4.3 1.3 2.7.9 3.5-.4.8.5 1.6.7 1.8.3.2 2 4.3 2.3 6.7.3 2.3.5 4.6.3 5.5s.1 2.7-.3 3.1c-.2.2-.4.7-.6 1.3 7.4 8.2 15.6 15.7 24.4 22.6.1-.3.3-.6.3-.6s.1.1.4.2zM114.1 43.9c.8-.1 1.3-.2 2.1.1.8.3 1.3.3 2.3.5.9.2 1.2.2 2.4.3 1.2.2 1.6.1 1.9.5.3.3.1.6 1.9.5 1.6-.1 1.6-.3 2.3 0 .7.3 1.9.6 2.1.7.3.1 1.5.6 1.7.6s1.5.3 1.5.3 1.2.6 1.9.6c.8 0-.1 0 2.3.3s2.7.5 2.9.2c.3-.2.4-1.4 1.3-.8.9.5 2-.5 2.5-.7.5-.2 1.2-.9 1.3-1 .1-.2.3-.2.8-.2.4 0 .7-.1.9.1.4.1 1.1.1 1.5.2.4.1.9.1 1.3.1s.9-.5 1.3-.3c.4.1.7.1.9.3.1.2.9.1 1.2.1s.8-.6 1.2-.6c.3.1 1.1.6 1.5.5.4-.1 1.6-.7 2-.8.7-.2 1.3-1.3 1.3-1.3l-.9-1.3s-1.5-.2-.7-.5c.8-.2 1.1-.2 1.6-.6.5-.3 1.3-1.5 1.3-1.5l-.5-1.2s1.1-.6.4-.9c-.5-.2-1.9-.6-2-.6-.3 0-.3-.3-.4-.6-.1-.2-1.1-.3-1.2 0-.1.2-.4.7-.8.8-.1-.2-.2-.4-.4-.4-.1 0-.6.5-.6.5v.1c-.1-.3.4-.6.7-.8.3-.3.9-.5.7-.7-.1-.2 0-.9 0-.9h-.6s-.1-.1-.2-.1-.1 0-.2.1h-.6s.1-.3-.4-.5c-.2 0-.4-.1-.7-.1.1-.1.2-.2.3-.2.4-.1.3-.6.6-.4.4.3.4.4.9.1.4-.3.5-.1.5-.4v-.1c.1 0 .2-.1.3-.1.3 0 .4.1.5-.1.1-.2.3-.6 0-.6s-.5 0-1.1-.1c-.1 0-.2 0-.4-.1h-.1c-.3-.1-.5-.1-.5-.3 0-.2-.1-.6-.4-.6-.2 0-.3-.1-.5-.3.3-.1.4-.2.4-.2s.1-.3.5-.1c.4.1.4-.3.6-.4.3-.1.8.3 1-.1.3-.5-.3-.8-.1-1 .1-.1 0-.8-.4-.9-.4-.1-.4 0-.8-.1s-1.3-.3-1.5-.4-.8-.3-1-.4c-.4-.1-.8-.1-1-.1-.1 0-.6 0-.9.3-.3.1-.4.1-.5.3-.1.1-.3.3-.5.3s-.3-.3-.4 0c0 .1-.1.2-.1.3h-.6c0-.4 0-.7.3-.8.4 0 .4-.6.3-.8 0-.3.3-.3-.3-.4s-1 .1-1-.1c-.1-.4-.4-.8-.1-.9.3 0 .8-.4.9-.6.1-.1.8-.1.1-.5-.6-.4-.9-.4-.9-.6-.1-.3-.1-.6-.4-.5-.3.1-.6.3-.8.5-.1.3-.5 1-.9.6-.4-.3-.5-.5-.5-.6 0-.3 0-.5.4-.6.4-.1.5-.1.9-.4.4-.3.6-.8.9-.9.4-.1.5 0 1-.3s.6-.3.9-.6c.1-.4.1-.9.5-.8.4.1.6.1 1-.1.3-.3-.3-.9 0-.9s.3-.4.8-.5c.5-.1.6-.4.6-.6 0-.3 0-.3-.8-.3-.3 0-1 .4-1.8.1-.8-.1-.8-.1-1.3-.1-.4 0-.8.1-1.2.4-.1.1-.1.1-.2.1s-.5-.1-.8-.1c-.1 0 0-.7.3-.5.3.2 1.2.1 1.1-.2-.1-.3.1-.6-.1-.7-.1-.1-.5-.5-.7-.6-.1-.2 0-.6-.1-.9-.1-.3.1-.7 0-.9 0-.2.3-.7 0-.8s-.5-.5-.4-.9c.1-.5.3-1 .3-1l-.4-.9.1-1.2s-.3-.3-.4-.6c-.1-.1-.2-.2-.2-.3-55.8 16-103.4 56-127.9 111.2.1 0 .2.1.2.1l.8 1 .9.6c.1.1.4.3.7.5l.3.6.1.8.3.7c.8.6 1.5.6 1.5.6s1.1-.2 1.3-.2c.2 0 .1.1.3-.3.1.6.7 1.6.6 1.7-.3.1.3.8.4 1 .1.3 1.4.6 1.4.6l1.3.3s.9.3.8.5c-.3.3 0 .5-.5.8s-.4.6-.8.6-.9.3-.9.3-.4.4-.5.6c0 .3-.4.5.3.6.6.1 1.7.6 1.9.6.3 0 .9-.3 1.3-.3.3.1.8.5 1 .8.3.1.9-.3 1.3-.3s.9.4 1 .6c.1.3.4.5.8.8s1.4.4 1.4.4.4-.5.6-.6c.3-.1.4-.1.9 0s.9.4 1.3.4c.5 0 1 0 1-.3.1-.3.3-.8 0-1.3-.4-.5-.6-.6-.9-.9-.4-.3-.4-.6-.6-1-.3-.4-.4-.4-.8-.5s-1.3.1-1.4 0c-.3-.1-1-.5-1-.5s.4-.3.4-.4c0-.3.1-.4-.1-.5-.3-.1-.6-.4-.9-.5-.3-.1-1-.3-1-.5s-.3-.3-.5-.6-.4-.4-.8-.8l-.8-.8c-.4-.4-.9-.5-1-.8-.1-.3-.5 0-.4-.5s-.1-.9-.1-.9-.4 0-.8-.1-1.3-.4-1.3-.6c.1-.3 0-.5-.4-.9-.1-.1-.2-.3-.3-.4.2-.4.2-.5.2-.5l.5-1.6s.1-.8-.1-1c-.3-.2-.4-.7-.4-.9s-.1-.6.3-.9c.3-.3.4-1 .4-1l-.8-1s-.3-.6-.1-.8c0-.2 0-.1.1-.5.1-.3-.1-.8.3-.8s.9.3.8-.2c-.1-.5.1-.9-.1-1-.3-.1-.7-.5-.7-.5s0-.3-.1-.6c0-.2.1-.9.4-1.3.3-.3.5-.3.1-.7-.3-.3-.3-.9-.1-1.2.1-.2 0-.7 0-.9.1-.2 0-1.2 0-1.2l.4-1.2.3-.8s.1.6.4-.2c.4-.8.5-1 .9-1.5s.9-.7.9-1c.1-.3.3 0 .5 0 .3 0 .4-.3.7-.8.3-.5.4-.8.8-.8.4.1 1.3.1 1.3.1s.7-.2 1.3-.6c.7-.3.8-.7 1.3-.7.4 0 .5 0 1.2-.3s.7-.8 1.1-.9c.4-.1.4-.2.9-.2.4 0 .7-.3 1.1-.8l.5-.3s.5-.1 1.2-.1c.8 0 .8.2 1.5 0s.3-.2 1.1-.3c.8-.1.4-.7 1.2-.9.9-.2 1.1-.9 1.7-.9.8 0 2.3-.3 2.7-.2.5 0 1.1.3 1.6.1s0-.5-.3-.8c-.3-.3-.5-1.2-.5-1.2s.5-.3.8 0c.3.3.7.7.9.7.4-.1.9-.3 1.2-.6s.5 0 .9.1c.5 0 .9-.6.8-.9-.1-.3-.5-.9-1.3-1-.8-.2-1.6-.6-1.1-.7.5-.1.9.1 1.6-.1.7-.1.7-.8.8-1.2.1-.3-.1-1.7.4-1.7-.4-.1-1.1-.3-1.5-.6-.5-.5-.7-.9-.3-1.2.3-.2.7-.7.8-.9.3-.2.8-1.2.8-1.2s.8-.2.3-.5c-.5-.2-1.3-1.2-1.6-1.2s-1.2-1.2-.7-.9c.5.2 1.2.3 1.3.6.3.2.5.2.7.1V79c0-.5.3-.7.7-.7.4.1.5 0 .8-.6.1-.6.7-1.8.9-1.7.3.1.8 0 .8 0s.8-.9.8-.6c-.1.3-1.2 1.5-1.5 2.1-.3.6.1 1-.3 1.3-.4.2 0 .3-.7.5-.7.1-.9-.7-.7.1.3.7.4 1 .5 1.2.3.1.7.1.5.5 0 .3.1.8 0 1-.1.2-.4.7-.9 1-.7.3-.8.7-.9.9-.1.2.3.7.3.7s.4-.2.7-.7c.1-.3.9-.7.9-.7s.4.1.7-.1c.3-.2 1.2-1.2 1.2-1.4 0-.2 0-.7.5-.6.4.1.9.1 1.2-.3.1-.3.1-1.2.1-1.2s0-.7.3-.8c.3-.1-.1-1-.1-1l-.5-1.4s.3-.2.5 0c.3.3.8.7.8 1.3.1.6.4 1.2.9.9.5-.2 1.7-.6 1.9-.9.1-.3.8-1.4 1.3-1.4s.9 0 1.1-.2c.1-.2.1-1.2.4-1.2.3 0 .7-.1.8-.3.1-.2.1-.8-.1-.9-.3 0-1.1-.3-.8-.6.3-.2.7-.7.8-.3.1.2.3.6.8.7.5.1.7.1 1.2 0 .4-.1.8.1 1.3 0s2.3-.2 2.5-.2 1.7.2 1.7.2.8-.3.9-.2c.1 0-.5-.5-.9-.6-.3-.1-1.2-.5-1.6-.3-.4.1-1.6 0-2 .1-.4.1-1.2-.2-1.2-.2s.9-.3 1.2-.3c.3-.1.4-.2 1.2-.1.8.1 1.2.2 1.6.3.4.1.9.3 1.3.3s1.7.3 1.7.3.4-.2.9-.2.9.1 1.2-.2c.1-.3.8-.6.8-.6s-.4.7 0 .8c.4.1.9-.1 1.1 0 .3.1.3-.7.8-.2.5.5.9.6 1.3.7.3.1 2 .1 2 .1l.4-.6s-1.3-.1-1.7-.3c-.4-.1-.4.5-.4-.1-.1-.6-.4-.9-.4-.9s-.1-.2 0-.7c.1-.5 0-.7 0-.9 0-.6.9-1.4.9-1.4l.3-1.4s-.4-.9 1.2-.8c1.5.1 1.9-.1 2.4-.6s.5-.9.8-.7c.3.2.9.5 1.3.3.4 0 1.9-.2 2.1-.3.3-.1.1-.3.7-.2.4.1.4-.8.8-.9.4-.2.7.5.9.6.4.1.9.2 1.5-.1.5-.3.5-.7 1.1-.6.5.2.5.6 1.3.5.8 0 1.2 0 1.7-.2.7-.1.9-.6 1.2-.7.4-.1.5-1 1.1-.8.5.3 1.1.5 1.7.6.7.1.7-.1.9-.2.3-.1 0-.8.5-.6.4.1.4.5.7.6.4.1.4-.3 1.3-.2.9.1 1.5-.1 2-.1s1.1-.2 1.9-.3c.8 0 2-.2 2.1 0 0 .2.3.6-.4.8-.7.1-1.3-.3-1.6 0-.1.2-.1.6.3.6.5 0 1.9.2 1.9.5s-.9.2-.9.5c.1.2 0 .5-.4.2-.3-.2-.5-.3-.8-.6-.4-.2.1-.3-.9-.1s-1.5 0-2.1.2c-.7.2-.8.2-1.2.6-.4.3-.4.3-.9.6-.5.2-.7.1-1.3.1-.7 0-1.2.1-1.5.3-.3.2-.7.5-.8.7-.1.2 0 .8.1 1 .1.3.9.9.8 1.2-.1.2-.8 1.2-.3 1.3.5 0 1.5 0 2-.2.4-.2 1.5-.6 1.5-.6s.7-.2 1.2-.2.7-.7 1.2-.9c.5-.2 1.5-.6 1.9-.5.4.1 1.5 0 1.5 0h1.5c.3 0 1.1-.2 1.1-.2s2.9-.3 3.9-.2c.9.1 2.1-.3 2.8-.1.5.2 2.4.2 2.4 0s-.5-1.2-.5-1.2.9.1 1.3.3c.5.2 1.2.8 2 .6.9-.1 1.2-.3 1.2-.3s0-.1.4-.3c.4-.2 1.1-.2 1.1-.2s.5-.6.9-.8c.5-.2.1-.6-.3-.7-.4 0-1.3-.7-1.2-.9.1-.2.3-.3.7-.7.4-.3.5-1.2.5-1.2s-1.2-.5-1.5-.6c-.3 0-1.1 0-1.3.5-.1.3-.4.8-.9.9-.3.1-.5.1-.8.1 0 0-.5-.4-1.2-.4s-2.3-.5-2.5-.3c-.3 0-1.3-.3-1.7-.3 0 0-.7 0-1.1-.9-.5-.9-.7-1.3-.7-1.3-.3.2.3.5-.4.7-.7.2-.7.8 0 1.2.7.3 1.5.3 1.3.9-.1.6-.1.8.4.9s1.3-.3 1.6-.1c.3.3.3.2.7.7.3.5.4.3.9.6h.2l-.2.4c0 .2.7.5-.4.5-1.1.1-1.1.5-1.1.1.1-.3.5-1 .4-1.2-.3-.1-.8 0-.8 0s-.4.5-.8.6c-.4 0-2-.1-1.7-.3.1-.2.5-.5.1-.6-.4-.1-1.6-.1-2-.1-.3-.1-.8-.3-.8-.3s.7-.3.3-.6c-.4-.2-1.3-.2-1.3-.2s-.3-.1-.1-.5c.1-.3-.4-.8-.4-.8l-.8-.1s-.5-.3-.4-.6c.1-.2.3-.1.3-.5 0-.3-.1-.6-.1-.9 0-.3-.5-1.4-.5-1.4s1.2.2.7-.2c-.5-.5-.4-.3-.9-.3s1.5-.9 1.5-.9.8-.8.7-1.2c-.1-.3-.1-.8-.1-.8l-1.9.2s-1.1-.1-1.5-.2c-.3-.1-.1-.7-.1-.7s-1.2-.3-1.6-.3c-.4 0-.8-.6-.8-.6s.1-.5.5-.5 2.1.3 2.3.8c.1.5.8.9.8.9s1.3.1 1.6-.3c.3-.5.8-.8 1.2-.6.4.1 1.3.1 1.3.1s.7-.9 1.1-1.2c.4-.2.7-.3.9-.3s.7-1 .3-1.3c-.4-.2-1.2-.6-1.1-1 .1-.5-.3-.7-.7-.7-.3-.1-3.3-.3-3.3-.3s-1.1-.6-1.3-.7c-.3-.1-3.2.3-3.9.5-.8.1-1.2.1-1.7.2-.5 0-2.3.3-2.7.2-.4-.1-1.5.2-1.5.2l-.8.5s-.5.2-.9.5c-.4.2-1.5.5-1.5.5l-.9-.8-1 .3s-.5.3-.8.3c-.3 0-.9 0-1.3.1s-.8.3-.8.3-.4.2-.8.3c-.4.1-.8.3-1.1.5-.3.1-.1.3-.7.5-.5.1-1.1 0-1.1 0l.3-.7.7-.1s.1-.1.5-.3c.4-.2 1.1-.3 1.1-.3l1.5-.3 1.2-.3s.7-.5 1.2-.6c.5-.1 1.1-.5 1.1-.5s0-.1.8-.3c.8-.2 1.1-.1 1.5-.3.4-.2.5-.3 1.2-.6.7-.2.8-.2 1.1-.3.3-.1.4-.1 1.1-.5.7-.3.1-.3 1.1-.5.9 0 1.1-.1 1.6 0s1.7-.2 1.7-.2 1.7-.7 2-1.2c.3-.5 1.2-.7 1.2-.7l1.3.1c-.2 0-.3-.4.5-.5zM68.2 150c.8.1 1.4.4 1-.4-.4-.8-.5-.9-.9-1.2-.4-.3-.4-.5-1.2-.5-.9 0-1.3-.3-1.9-.3-.8 0-1.3-.1-1.4-.4-.1-.4 0 .5-.6.3-.6-.1-.6 1.2-.6 1.5 0 .5-.3.5.9.6 1 .1 1.8.1 2.2.1.3.1.5.5 1.2.6.6.1.8.1 1.2 0 0-.1-.7-.5.1-.3zM45 146.1c.4.4.3.1.9.3.5.3.9 0 1.3 0s.9-.5.9-.9c.1-.5.1-.9.4-.8.8.1 1.2-.1 1.4.4.4.5.8.8 1 .5.3-.1.8-.1 1-.5.4-.4.4-.8.6-.5.3.3 2.6.6 2.9 1 .4.4.5.3 1 .5.5.3.6.1 1 0 .5 0 .8-.1.9-.5 0-.5-.1-1.2-.3-1.4-.1-.3-.3-.8-.6-.9-.4-.1-.6-.1-1-.1-.5 0-1.2-.3-1.4-.5-.1-.3-1-.5-.5-.5s.9.3.9-.1.3-.5-.4-.6c-.6-.1-1.3-.1-1.4-.4-.1-.3-.4-.3-.3-.6.1-.4 0-.6-.4-.9-.4-.1-.8-.4-1-.4-.3 0-.8-.4-.8-.4s-.4-.1-.5-.4c-.1-.3-.8-.5-.8-.5s-2.4-.3-2.7-.5c-.3-.3-.4.5-1 .3-.8-.3-.6-.1-1.3-.4-.5-.3-.5-.4-1.2-.6-.8-.3.1-.4-1-.6-1.2-.3-1.7-.4-1.9-.3-.4.1 0 .5 0 .8 0 .3.3.6.6.6.5 0 1.2-.1 1 .1-.1.3-.1.8-.4 1-.3.3-.3.9 0 1 .1.3.8.4.6.8-.1.3-.6.3-.5.6.1.4.8 1.3.8 1.3s-1.2-.1-1.8-.3c-.6-.1-.9-.1-1.4-.5-.5-.4-1.4-.4-1.8-.6-.5-.3-.1-.3-1-.5-.9-.4-1.4-.4-1.7-.3-.3.1-1 1-.3 1.2.8.1 1.5.6 1.3 1-.3.4-.6.5-.1.8.4.3.9.4 1.3.3.4-.1.6-.4 1-.5.4-.1.4-.4.8 0s.8.3 1.2.6c.5.4.5-.4 1.3-.1.6.4 1 .1 1.3.4.4.3.6.4.6.4s.4.1.5.5c.3.4.9.4.8.8.1.2-.2.4.2.9zM23.1 139.6c.5.6.5.6 1.2.9s.9.3 1.3.5c.4.1.4 0 1-.1s.5-.3 1 .1c.6.4.6.4 1 .4.3 0 .6.1.8 0 .1-.3.4-1-.3-1.2 0 0-1.4-.5-1.5-1-.1-.6-.8-1-1-1.3-.3-.3-1.3-.4-1.7-.5-.4-.1-1.7-.4-1.7-.4s-1 0-1.4-.1c-.3-.1-.6-.1-.6.1s.4 1.2.8 1.2c.5 0 1.2-.1 1.2.4-.2.5-.6.4-.1 1z"/><path class="st1" d="M242.7 8.7c.3.2.3.2.9.2.6 0 .5.5.6.7.1.1.6.7.6.7s.3-.2.5-.4c.1-.3.6-.1.6-.1l.8.4s.1.4-.1.5-.4-.2-1-.3c-.2 0-.5.7-.5.7l.7.5c.3.1.3 0 .6-.1.2 0 .4-.1.6.2s.4.1.7-.2c.3-.2.1-.4.1-.5 0-.2.5-.4.5-.4s.2-.3.1-.5c-.2-.2-.1-.4-.5-.8s0 0-.3-.1 0-.3-.3-.4c-.3-.1.2-.4 0-.7-.2-.2-.2-.3-.8-.5 0 0 .1-.2.1-.4-1.4-.3-2.7-.6-4.1-.9.1.1.1.2.1.2s.2.7-.1.7c-.3 0-.5.2-.5.7.1.4.2.4.7.8z"/><g><radialGradient id="SVGID_2_" cx="264.023" cy="126.339" r="312.704" gradientUnits="userSpaceOnUse"><stop offset=".001" stop-color="#76f780"/><stop offset=".161" stop-color="#72f17b"/><stop offset=".385" stop-color="#66de6d"/><stop offset=".647" stop-color="#52c155"/><stop offset=".935" stop-color="#379735"/><stop offset="1" stop-color="#308d2d"/></radialGradient><path d="M68.2 148.3c.8.1 1.4.4 1-.4-.4-.8-.5-.9-.9-1.2-.4-.3-.4-.5-1.2-.5-.9 0-1.3-.3-1.9-.3-.8 0-1.3-.1-1.4-.4-.1-.4 0 .5-.6.3-.6-.1-.6 1.2-.6 1.5 0 .5-.3.5.9.6 1 .1 1.8.1 2.2.1.3.1.5.5 1.2.6.6.1.8.1 1.2 0 0 0-.7-.4.1-.3z" fill="url(#SVGID_2_)"/><radialGradient id="SVGID_3_" cx="264.023" cy="126.339" r="312.704" gradientUnits="userSpaceOnUse"><stop offset=".001" stop-color="#76f780"/><stop offset=".161" stop-color="#72f17b"/><stop offset=".385" stop-color="#66de6d"/><stop offset=".647" stop-color="#52c155"/><stop offset=".935" stop-color="#379735"/><stop offset="1" stop-color="#308d2d"/></radialGradient><path d="M45 144.5c.4.4.3.1.9.3.5.3.9 0 1.3 0s.9-.5.9-.9c.1-.5.1-.9.4-.8.8.1 1.2-.1 1.4.4.4.5.8.8 1 .5.3-.1.8-.1 1-.5.4-.4.4-.8.6-.5.3.3 2.6.6 2.9 1 .4.4.5.3 1 .5.5.3.6.1 1 0 .5 0 .8-.1.9-.5 0-.5-.1-1.2-.3-1.4-.1-.3-.3-.8-.6-.9-.4-.1-.6-.1-1-.1-.5 0-1.2-.3-1.4-.5-.1-.3-1-.5-.5-.5s.9.3.9-.1.3-.5-.4-.6c-.6-.1-1.3-.1-1.4-.4-.1-.3-.4-.3-.3-.6.1-.4 0-.6-.4-.9-.4-.1-.8-.4-1-.4-.3 0-.8-.4-.8-.4s-.4-.1-.5-.4c-.1-.3-.8-.5-.8-.5s-2.4-.3-2.7-.5c-.3-.3-.4.5-1 .3-.8-.3-.6-.1-1.3-.4-.5-.3-.5-.4-1.2-.6-.8-.3.1-.4-1-.6-1.2-.3-1.7-.4-1.9-.3-.4.1 0 .5 0 .8 0 .3.3.6.6.6.5 0 1.2-.1 1 .1-.1.3-.1.8-.4 1-.3.3-.3.9 0 1 .1.3.8.4.6.8-.1.3-.6.3-.5.6.1.4.8 1.3.8 1.3s-1.2-.1-1.8-.3c-.6-.1-.9-.1-1.4-.5-.5-.4-1.4-.4-1.8-.6-.5-.3-.1-.3-1-.5-.9-.4-1.4-.4-1.7-.3-.3.1-1 1-.3 1.2.8.1 1.5.6 1.3 1-.3.4-.6.5-.1.8.4.3.9.4 1.3.3.4-.1.6-.4 1-.5.4-.1.4-.4.8 0s.8.3 1.2.6c.5.4.5-.4 1.3-.1.6.4 1 .1 1.3.4.4.3.6.4.6.4s.4.1.5.5c.3.4.9.4.8.8.1.1-.2.4.2.9z" fill="url(#SVGID_3_)"/><radialGradient id="SVGID_4_" cx="264.023" cy="126.339" r="312.704" gradientUnits="userSpaceOnUse"><stop offset=".001" stop-color="#76f780"/><stop offset=".161" stop-color="#72f17b"/><stop offset=".385" stop-color="#66de6d"/><stop offset=".647" stop-color="#52c155"/><stop offset=".935" stop-color="#379735"/><stop offset="1" stop-color="#308d2d"/></radialGradient><path d="M23.1 138c.5.6.5.6 1.2.9s.9.3 1.3.5c.4.1.4 0 1-.1s.5-.3 1 .1c.6.4.6.4 1 .4.3 0 .6.1.8 0 .1-.3.4-1-.3-1.2 0 0-1.4-.5-1.5-1-.1-.6-.8-1-1-1.3-.3-.3-1.3-.4-1.7-.5-.4-.1-1.7-.4-1.7-.4s-1 0-1.4-.1c-.3-.1-.6-.1-.6.1s.4 1.2.8 1.2c.5 0 1.2-.1 1.2.4-.2.5-.6.3-.1 1z" fill="url(#SVGID_4_)"/><radialGradient id="SVGID_5_" cx="264.023" cy="126.339" r="312.704" gradientUnits="userSpaceOnUse"><stop offset=".001" stop-color="#76f780"/><stop offset=".161" stop-color="#72f17b"/><stop offset=".385" stop-color="#66de6d"/><stop offset=".647" stop-color="#52c155"/><stop offset=".935" stop-color="#379735"/><stop offset="1" stop-color="#308d2d"/></radialGradient><path d="M18.2 120l.9.6c.1.1.4.3.7.5l.3.6.1.8.3.7c.8.6 1.5.6 1.5.6s1.1-.2 1.3-.2c.2 0 .1.1.3-.3.1.6.7 1.6.6 1.7-.3.1.3.8.4 1 .1.3 1.4.6 1.4.6l1.3.3s.9.3.8.5c-.3.3 0 .5-.5.8s-.4.6-.8.6-.9.3-.9.3-.4.4-.5.6c0 .3-.4.5.3.6.6.1 1.7.6 1.9.6.3 0 .9-.3 1.3-.3.3.1.8.5 1 .8.3.1.9-.3 1.3-.3s.9.4 1 .6c.1.3.4.5.8.8s1.4.4 1.4.4.4-.5.6-.6c.3-.1.4-.1.9 0s.9.4 1.3.4c.5 0 1 0 1-.3.1-.3.3-.8 0-1.3-.4-.5-.6-.6-.9-.9-.4-.3-.4-.6-.6-1-.3-.4-.4-.4-.8-.5s-1.3.1-1.4 0c-.3-.1-1-.5-1-.5s.4-.3.4-.4c0-.3.1-.4-.1-.5-.3-.1-.6-.4-.9-.5-.3-.1-1-.3-1-.5s-.3-.3-.5-.6-.4-.4-.8-.8l-.8-.8c-.4-.4-.9-.5-1-.8-.1-.3-.5 0-.4-.5s-.1-.9-.1-.9-.4 0-.8-.1-1.3-.4-1.3-.6c.1-.3 0-.5-.4-.9-.1-.1-.2-.3-.3-.4.2-.4.2-.5.2-.5l.5-1.6s.1-.8-.1-1c-.3-.2-.4-.7-.4-.9s-.1-.6.3-.9c.3-.3.4-1 .4-1l-.8-1s-.3-.6-.1-.8c0-.2 0-.1.1-.5.1-.3-.1-.8.3-.8s.9.3.8-.2c-.1-.5.1-.9-.1-1-.3-.1-.7-.5-.7-.5s0-.3-.1-.6c0-.2.1-.9.4-1.3.3-.3.5-.3.1-.7-.3-.3-.3-.9-.1-1.2.1-.2 0-.7 0-.9.1-.2 0-1.2 0-1.2l.4-1.2.3-.8s.1.6.4-.2c.4-.8.5-1 .9-1.5s.9-.7.9-1c.1-.3.3 0 .5 0 .3 0 .4-.3.7-.8.3-.5.4-.8.8-.8.4.1 1.3.1 1.3.1s.7-.2 1.3-.6c.7-.3.8-.7 1.3-.7.4 0 .5 0 1.2-.3s.7-.8 1.1-.9c.4-.1.4-.2.9-.2.4 0 .7-.3 1.1-.8l.5-.3s.5-.3 1.2-.3c.8 0 .8.2 1.5 0s.3-.2 1.1-.3c.8-.1.4-.7 1.2-.9.9-.2 1.1-.9 1.7-.9.8 0 2.3-.3 2.7-.2.5 0 1.1.3 1.6.1s0-.5-.3-.8c-.3-.3-.5-1.2-.5-1.2s.5-.3.8 0c.3.3.7.7.9.7.4-.1.9-.3 1.2-.6s.5 0 .9.1c.5 0 .9-.6.8-.9-.1-.3-.5-.9-1.3-1-.8-.2-1.6-.6-1.1-.7.5-.1.9.1 1.6-.1.7-.1.7-.8.8-1.2.1-.3-.1-1.7.4-1.7-.4-.1-1.1-.3-1.5-.6-.5-.5-.7-.9-.3-1.2.3-.2.7-.7.8-.9.3-.2.8-1.2.8-1.2s.8-.2.3-.5c-.5-.2-1.3-1.2-1.6-1.2s-1.2-1.2-.7-.9c.5.2 1.2.3 1.3.6.3.2.5.2.7.1v-.5c0-.5.3-.7.7-.7.4.1.5 0 .8-.6.1-.6.7-1.8.9-1.7.3.1.8 0 .8 0s.8-.9.8-.6c-.1.3-1.2 1.5-1.5 2.1-.3.6.1 1-.3 1.3-.4.2 0 .3-.7.5-.7.1-.9-.7-.7.1.3.7.4 1 .5 1.2.3.1.7.1.5.5 0 .3.1.8 0 1-.1.2-.4.7-.9 1-.7.3-.8.7-.9.9-.1.2.3.7.3.7s.4-.2.7-.7c.1-.3.9-.7.9-.7s.4.1.7-.1c.3-.2 1.2-1.2 1.2-1.4 0-.2 0-.7.5-.6.4.1.9.1 1.2-.3.1-.3.1-1.2.1-1.2s0-.7.3-.8c.3-.1-.1-1-.1-1l-.5-1.4s.3-.2.5 0c.3.3.8.7.8 1.3.1.6.4 1.2.9.9.5-.2 1.7-.6 1.9-.9.1-.3.8-1.4 1.3-1.4s.9 0 1.1-.2c.1-.2.1-1.2.4-1.2.3 0 .7-.1.8-.3.1-.2.1-.8-.1-.9-.3 0-1.1-.3-.8-.6.3-.2.7-.7.8-.3.1.2.3.6.8.7.5.1.7.1 1.2 0 .4-.1.8.1 1.3 0s2.3-.2 2.5-.2 1.7.2 1.7.2.8-.3.9-.2c.1 0-.5-.5-.9-.6-.3-.1-1.2-.5-1.6-.3-.4.1-1.6 0-2 .1-.4.1-1.2-.2-1.2-.2s.9-.3 1.2-.3c.3-.1.4-.2 1.2-.1.8.1 1.2.2 1.6.3.4.1.9.3 1.3.3s1.7.3 1.7.3.4-.2.9-.2.9.1 1.2-.2c.1-.3.8-.6.8-.6s-.4.7 0 .8c.4.1.9-.1 1.1 0 .3.1.3-.7.8-.2.5.5.9.6 1.3.7.3.1 2 .1 2 .1l.4-.6s-1.3-.1-1.7-.3c-.4-.1-.4.5-.4-.1-.1-.6-.4-.9-.4-.9s-.1-.2 0-.7c.1-.5 0-.7 0-.9 0-.6.9-1.4.9-1.4l.3-1.4s-.4-.9 1.2-.8c1.5.1 1.9-.1 2.4-.6s.5-.9.8-.7c.3.2.9.5 1.3.3.4 0 1.9-.2 2.1-.3.3-.1.1-.3.7-.2.4.1.4-.8.8-.9.4-.2.7.5.9.6.4.1.9.2 1.5-.1.5-.3.5-.7 1.1-.6.5.2.5.6 1.3.5.8 0 1.2 0 1.7-.2.7-.1.9-.6 1.2-.7.4-.1.5-1 1.1-.8.5.3 1.1.5 1.7.6.7.1.7-.1.9-.2.3-.1 0-.8.5-.6.4.1.4.5.7.6.4.1.4-.3 1.3-.2.9.1 1.5-.1 2-.1s1.1-.2 1.9-.3c.8 0 2-.2 2.1 0 0 .2.3.6-.4.8-.7.1-1.3-.3-1.6 0-.1.2-.1.6.3.6.5 0 1.9.2 1.9.5s-.9.2-.9.5c.1.2 0 .5-.4.2-.3-.2-.5-.3-.8-.6-.4-.2.1-.3-.9-.1s-1.5 0-2.1.2c-.7.2-.8.2-1.2.6-.4.3-.4.3-.9.6-.5.2-.7.1-1.3.1-.7 0-1.2.1-1.5.3-.3.2-.7.5-.8.7-.1.2 0 .8.1 1 .1.3.9.9.8 1.2-.1.2-.8 1.2-.3 1.3.5 0 1.5 0 2-.2.4-.2 1.5-.6 1.5-.6s.7-.2 1.2-.2.7-.7 1.2-.9c.5-.2 1.5-.6 1.9-.5.4.1 1.5 0 1.5 0h1.5c.3 0 1.1-.2 1.1-.2s2.9-.3 3.9-.2c.9.1 2.1-.3 2.8-.1.5.2 2.4.2 2.4 0s-.5-1.2-.5-1.2.9.1 1.3.3c.5.2 1.2.8 2 .6.9-.1 1.2-.3 1.2-.3s0-.1.4-.3c.4-.2 1.1-.2 1.1-.2s.5-.6.9-.8c.5-.2.1-.6-.3-.7-.4 0-1.3-.7-1.2-.9.1-.2.3-.3.7-.7.4-.3.5-1.2.5-1.2s-1.2-.5-1.5-.6c-.3 0-1.1 0-1.3.5-.1.3-.4.8-.9.9-.3.1-.5.1-.8.1 0 0-.5-.4-1.2-.4s-2.3-.5-2.5-.3c-.3 0-1.3-.3-1.7-.3 0 0-.7 0-1.1-.9-.5-.9-.7-1.3-.7-1.3-.3.2.3.5-.4.7-.7.2-.7.8 0 1.2.7.3 1.5.3 1.3.9-.1.6-.1.8.4.9s1.3-.3 1.6-.1c.3.3.3.2.7.7.3.5.4.3.9.6h.2l-.2.4c0 .2.7.5-.4.5-1.1.1-1.1.5-1.1.1.1-.3.5-1 .4-1.2-.3-.1-.8 0-.8 0s-.4.5-.8.6c-.4 0-2-.1-1.7-.3.1-.2.5-.5.1-.6-.4-.1-1.6-.1-2-.1-.3-.1-.8-.3-.8-.3s.7-.3.3-.6c-.4-.2-1.3-.2-1.3-.2s-.3-.1-.1-.5c.1-.3-.4-.8-.4-.8l-.8-.1s-.5-.3-.4-.6c.1-.2.3-.1.3-.5 0-.3-.1-.6-.1-.9 0-.3-.5-1.4-.5-1.4s1.2.2.7-.2c-.5-.5-.4-.3-.9-.3s1.5-.9 1.5-.9.8-.8.7-1.2c-.6-1-.6-1.5-.6-1.5l-1.9.2s-1.1-.1-1.5-.2c-.3-.1-.1-.7-.1-.7s-1.1-.3-1.5-.3c-.4 0-.8-.6-.8-.6s.1-.5.5-.5 2.1.3 2.3.8c.1.5.8.9.8.9s1.3.1 1.6-.3c.3-.5.8-.8 1.2-.6.4.1 1.3.1 1.3.1s.7-.9 1.1-1.2c.4-.2.7-.3.9-.3s.7-1 .3-1.3c-.4-.2-1.2-.6-1.1-1 .1-.5-.3-.7-.7-.7-.3-.1-3.3-.3-3.3-.3s-1.1-.6-1.3-.7c-.3-.1-3.2.3-3.9.5-.8.1-1.2.1-1.7.2-.5 0-2.3.3-2.7.2-.4-.1-1.5.2-1.5.2l-.8.5s-.5.2-.9.5c-.4.2-1.5.5-1.5.5l-.8.2-1 .3s-.5.3-.8.3c-.3 0-.9 0-1.3.1s-.8.3-.8.3-.4.2-.8.3c-.4.1-.8.3-1.1.5-.3.1-.1.3-.7.5-.5.1-1.1 0-1.1 0l.3-.7.7-.1s.1-.1.5-.3c.5-.2 1.1-.3 1.1-.3l1.5-.3 1.2-.3s.7-.5 1.2-.6c.5-.1 1.1-.5 1.1-.5s0-.1.8-.3c.8-.2 1.1-.1 1.5-.3.4-.2.5-.3 1.2-.6.7-.2.8-.2 1.1-.3.3-.1.4-.1 1.1-.5.7-.3.1-.3 1.1-.5.9 0 1.1-.1 1.6 0s1.7-.2 1.7-.2 1.7-.7 2-1.2c.3-.5 1.2-.7 1.2-.7l1.3.1s-.1-.3.7-.5c.8-.1 1.3-.2 2.1.1.8.3 1.3.3 2.3.5.9.2 1.2.2 2.4.3 1.2.2 1.6.1 1.9.5.3.3.1.6 1.9.5 1.6-.1 1.6-.3 2.3 0 .7.3 1.9.6 2.1.7.3.1 1.5.6 1.7.6s1.5.3 1.5.3 1.2.6 1.9.6c.8 0-.1 0 2.3.3s2.7.5 2.9.2c.3-.2.4-1.4 1.3-.8.9.5 2-.5 2.5-.7.5-.2 1.2-.9 1.3-1 .1-.2.3-.2.8-.2.4 0 .7-.1.9.1.4.1 1.1.1 1.5.2.4.1.9.1 1.3.1s.9-.5 1.3-.3c.4.1.7.1.9.3.1.2.9.1 1.2.1s.8-.6 1.2-.6c.3.1 1.1.6 1.5.5.4-.1 1.6-.7 2-.8.7-.2 1.3-1.3 1.3-1.3l-.9-1.3s-1.5-.2-.7-.5c.8-.2 1.1-.2 1.6-.6.5-.3 1.3-1.5 1.3-1.5l-.5-1.2s1.1-.6.4-.9c-.5-.2-1.9-.6-2-.6-.3 0-.3-.3-.4-.6-.1-.2-1.1-.3-1.2 0-.1.2-.4.7-.8.8-.1-.2-.2-.4-.4-.4-.1 0-.6.5-.6.5v.1c-.1-.3.4-.6.7-.8.3-.3.9-.5.7-.7-.1-.2 0-.9 0-.9h-.6s-.1-.1-.2-.1-.1 0-.2.1h-.8s.1-.3-.4-.5c-.2 0-.4-.1-.7-.1.1-.1.2-.2.3-.2.4-.1.3-.6.6-.4.4.3.4.4.9.1.4-.3.5-.1.5-.4v-.1c.1 0 .2-.1.3-.1.3 0 .4.1.5-.1.1-.2.3-.6 0-.6s-.5 0-1.1-.1c-.1 0-.2 0-.4-.1h-.1c-.3-.1-.5-.1-.5-.3 0-.2-.1-.6-.4-.6-.2 0-.3-.1-.5-.3.3-.1.4-.2.4-.2s.1-.3.5-.1c.4.1.4-.3.6-.4.3-.1.8.3 1-.1.3-.5-.3-.8-.1-1 .1-.1 0-.8-.4-.9-.4-.1-.4 0-.8-.1s-1.3-.3-1.5-.4-.8-.3-1-.4c-.4-.1-.8-.1-1-.1-.1 0-.6 0-.9.3-.3.1-.4.1-.5.3-.1.1-.3.3-.5.3s-.3-.3-.4 0c0 .1-.1.2-.1.3h-.6c0-.4 0-.7.3-.8.4 0 .4-.6.3-.8 0-.3.3-.3-.3-.4s-1 .1-1-.1c-.1-.4-.4-.8-.1-.9.3 0 .8-.4.9-.6.1-.1.8-.1.1-.5-.6-.4-.9-.4-.9-.6-.1-.3-.1-.6-.4-.5-.3.1-.6.3-.8.5-.1.3-.5 1-.9.6-.4-.3-.5-.5-.5-.6 0-.3 0-.5.4-.6.4-.1.5-.1.9-.4.4-.3.6-.8.9-.9.4-.1.5 0 1-.3s.6-.3.9-.6c.1-.4.1-.9.5-.8.4.1.6.1 1-.1.3-.3-.3-.9 0-.9s.3-.4.8-.5c.5-.1.6-.4.6-.6 0-.3 0-.3-.8-.3-.3 0-1 .4-1.8.1-.8-.1-.8-.1-1.3-.1-.4 0-.8.1-1.2.4-.1.1-.1.1-.2.1s-.5-.1-.8-.1c-.1 0 0-.7.3-.5.3.2 1.2.1 1.1-.2-.1-.3.1-.6-.1-.7-.1-.1-.5-.5-.7-.6-.1-.2 0-.6-.1-.9-.1-.3.1-.7 0-.9 0-.2.3-.7 0-.8s-.5-.5-.4-.9c.1-.5.3-1 .3-1l-.4-.9.1-1.2s-.3-.3-.4-.6c-.1-.1-.2-.2-.2-.3C89 23.8 41.4 63.8 16.9 119c.1 0 .2.1.2.1l1.1.9z" fill="url(#SVGID_5_)"/><radialGradient id="SVGID_6_" cx="264.023" cy="126.339" r="312.704" gradientUnits="userSpaceOnUse"><stop offset=".001" stop-color="#76f780"/><stop offset=".161" stop-color="#72f17b"/><stop offset=".385" stop-color="#66de6d"/><stop offset=".647" stop-color="#52c155"/><stop offset=".935" stop-color="#379735"/><stop offset="1" stop-color="#308d2d"/></radialGradient><path d="M174.3 269.4c-.7-.2-.9-.5-1.5-.5-.5 0-1.5-.1-2-.3-.4-.1-1.6-.3-1.9-.6s-.8-.2-.9-.5c-.1-.2-.8-.8-1.1-1-.3-.2-3.3-3.5-3.6-3.7-.3-.2-2-1.3-2-1.8s-.4-.7-.5-.9c-.1-.2-.5-.6-.7-.9-.3-.3-.5-.6-.8-.8-.3-.2-.3-.3-.8-.5-.4-.1-1.5-.1-1.9-.2-.4-.1-2.9-.7-2.9-.7s-.8-.1-1.2.1c-.4.2.1.6-.4.2l-.9-.9c-.3-.2-1.2-.5-1.6-.7-.4-.1-.9-.5-1.2-.5-.3 0-.5-.2-.7-.6-.1-.3-1.9-.8-1.9-.8s-.4.2-.7.1c-.3 0-1.7.3-2 .2-.3-.2-.8.5-.9.1-.1-.3.1-.8-.1-.8s-.5.2-.7.6c-.1.3 0 1-.4.9-.4-.1-.7-.6-.7-.6s0-.7.1-.8c.3-.1 1.2-.6 1.3-.8.1-.2.1-.9.1-1.2 0-.2-.4-1.6-.7-1.7-.3-.2-1.7-.5-2.3-.7-.5-.2-1.9-.8-1.7-1 0-.2-1.7-.3-1.9-.6-.1-.3-.7-.7-.9-.8-.3-.1-.9-.1-1.1-.3-.1-.2-.8-.8-.8-.8l-.7-.3s-1.1-.3-1.5-.6c-.3-.1-1.2-.2-1.2-.2l-1.1.7s-.3.7-.5.8c-.3.1-.7.5-.8.7-.1.2 0 .7-.3.6-.1-.2-.7-.7-.9-.7-.3.1-.8.7-.8.7l-.8.2-.9.5s-.4-.7-.1-.7c.3 0 .5-.5.4-.7-.3-.1-.9.1-1.1-.1-.1-.2.1-.6.4-.6s1.2.2 1.2.2.3.2.5 0c.3-.1.7-.3 1.1-.5.4-.1 1.1-.7 1.1-.7s.5-.6.7-.8c.1-.3-.1-.8-.1-1 0-.2.3-.1.4-.5.1-.2-.8-.6-.9-.6-.3 0-1.1-.1-1.5-.1-.3 0-1.2-.1-1.2-.1s-.8-.2-.8-.6c0-.2-.5-.2-.9-.5-.4-.1-.5-.2-1.1-.1-.4.1 0 .1-.4.1-.5 0-.7-.6-.9-.5-.7.2-1.3 1.6-1.3 1.8s.3.2-.1.6c-.3.2-.3.7-.3.7s-.8-.5-1.2-.6c-.3-.1-.8 0-.8 0h-.8l-.9.5-.7.2-1.1.2-.8-.2-.5-1s.8.1 1.1.2c.3.1 1.2 0 1.2 0s.8-.2.8-.6l.1-.6c0-.2.5-.6.8-.5.3.1.8-.6.8-.8s0-.7.3-.7.9-.2 1.2-.3c.3-.1.5-.6.5-.6s.4.2.5.2c.3 0 .9.1 1.1-.2.1-.2.4-1.2.8-1.2s.9-.8 1.5-.9c.5-.1.1-.8.8-1.2.7-.2.5-.8.3-1.2-.3-.3-.5 0-1.2-.3-.5-.3-1.1-.6-1.3-1.2-.3-.6-.7-.6-.5-1.2.1-.6-.1-.9-.3-1.5-.1-.6-.1-.8-.1-1.4 0-.5-.4-.8 0-1.2.4-.3.7-.5.5-.9-.3-.5.1-.6-.1-1-.3-.5-.3-.7-.7-.7-.3-.1-.5 0-.9-.1-.3-.1 0 .1-.3-.1-.4-.1-.1-.6-.7-1.3-.4-.7-1.3-1.3-1.9-2-.4-.7-.8-1.4-1.3-1.7-.5-.3-2-.7-2.3-.7-.3 0-1.1-.1-1.2-.5-.1-.3 0-.6-.3-1-.3-.5-.8-.9-1.2-.9-.3 0-.5.3-.8.3-.3 0-.8-.2-.9-.5-.1-.2-.1-.6-1.1-.8-.8-.2-.8-.2-1.1.1-.1.2 0 1.2-.4.7s-.9-.7-.9-.9.5.2 0-.2c-.4-.5-.7-.7-1.3-.7-.8 0-1.1.3-1.1.3s.4.7-.1.7-.9-.2-.9-.5-.1-.6-.7-.7c-.7-.1-1.6-.2-1.6-.2s-.5-.2-.8-.3c-.3 0-.4.8-.7.7-.3-.1-.5-.5-.4-.8.1-.3.5-1.3.1-1.5-.4-.2-1.2-.9-1.2-.9s-.7-.8-.9-.9c-.3-.1-.8-.5-1.1-.6-.3-.1-1.5.1-1.5.1s-.1.3 0-.5 1.2-.6.4-2.1c-.9-1.5-2.4-2.7-3.3-3.3-.9-.7-1.1-1.5-1.9-1.7-.8-.3-.9-.6-1.3-.6-.5 0-.7.2-1.3.1s-.9-.5-1.1-.3c-.1.2-.3.6-.9.5-.5-.1-1.6-.8-1.1-.9.4-.2.8.5 1.3.1.4-.3-.1-.7.7-.9.7-.2 1.1-.3 1.2-.9.1-.6.5-.6 0-.9-.5-.3 0-.7-1.2-.9-1.2-.3-1.3.1-1.7-.6-.4-.7.5-.2-.4-.7-.9-.5-.9-.5-1.2-.5-.3 0-.3.7-.8.5-.5-.2-.7-.6-.7-.9 0-.3.3-.7-.3-.7-.5 0-1.2 0-1.2-.5 0-.3.5-.8.8-.6.3.2 1.6.6 1.9.5.4-.1.7-.5.5-.8-.3-.3-.8-.5-1.6-.5s-1.5-.2-2-.3c-.4-.1-.7-.7-1.2-.8-.5-.1-1.3.1-1.3.1s-.8.2-1.1.2.1-.6-.7-.5c-.9.1-1.1.9-1.5.9-.3 0-1.1.2-1.1.2s-.7.6-1.1.6c-.5 0-1.1-.3-1.3-.5-.3 0-.9-.8-1.2-.8s-.9-.5-.8-.9c0-.5 0-.7-1.1-.7-.9-.1-2.3-.2-2.9-.3-.8 0-1.3-.1-2.1-.2-.7-.1-1.7 0-2.1-.2-.4-.2-.8.2-.5-.6.3-.9-.4-1.8-.5-2.3-.1-.3.4-1.2-.3-1.3-.5-.1-1.1-.3-1.5-.5-.4-.1-1.6-.3-1.6-.3s-1.2.1-1.2-.1-.1-.5-.3-.9c0-.5.3-.7 0-1-.1-.3.4-.6-.1-.8-.5-.2-.1-.3-.5-.2-.4.1-.7.1-.7.3.1.2-.1.3 0 .7.3.3.1.5.1.9 0 .5-.4.7-.4.7-.9.2-1.6.1-1.6.1s-1.5 0-2.1.1c-.8 0-1.1.1-1.3.5-.4.5-.3.8-.4 1-.1.2-.3.8-.1 1l.4.8s.1.5.3.7c0 .2.3.3.3.7.1.3 0 .8 0 .8s.3.2 0 .5-.7.6-.7.6-.3.1-.7.2c-.4 0-1.2 0-1.1-.1 0-.2 0-.2.3-.6s.1-.9-.3-.9-.4.3-.8.1c-.3-.2-.3-.8-.4-1 0-.2-.4-.7.1-.8.5 0 .9-.5.9-.5l.1-.6c.5-.5 1.2-.5.9-1.7-.3-1.3-.3-2-.4-2.2-.1-.3-.4-.8 0-.7.4.1.7 0 1.1.2.4.2 1.1-.1 1.2-.2.1-.2-.4-.5.3-.5.7.1.8 0 .8-.9s.3-.8-.3-1.2c-.5-.3-.7-.1-.9-.6-.3-.5-.7-.3-1.5.1-.8.5-1.1.5-1.7.7-.5.2-.9-.1-1.2.5-.4.7-.4.6-.9.7-.4.1-.5.5-1.5.3-.9-.1-1.2.2-1.6 0-.5-.2-.5 0-1.2-.2s-.7-.1-1.1-.2c-.3-.1-.4-.1-.7.2s-.5.8-.5 1c0 .2 0 .5-.3.6-.4.1-.3.7-.4.1-.1-.6.1-.9-.3-1.2-.3-.2-.1-.7-.7-.6-.5.1-.5.2-1.1.3-.5.1-.8.2-.9.5-.1.2.1.6-.3.7l-.8.2s-.3 3.3-.8 3.3c-.5.1-1.5.1-1.9.6-.4.5-.9.8-1.6.8-.8 0-.9.5-.9.5s0 .8-.4.8c-.4.1.1.6-.4.1-.4-.6-1.5-.5-1.5-1-.1-.6-.4-.9-.9-1.4-.5-.6-1.3-.5-1.5-1.2-.3-.7-1.2-1.2-1.5-1.3-.1-.2-.5-.2-1.1-.2-.5 0-.7.1-.7-.1-.1-.2-.3-.8-.5-.9-.3-.1-.5-.1-1.1.1-.4.2-.8.5-1.2.6-.4.1-.9.3-.9.3s-.5.2-.9.1-1.1-.3-1.2-.2c-.3.1-.7.3-.9.5s-.7.5-.9.1c-.1-.2-.5-.5-.7-.6-.3-.1-.8-.7-1.2-.6-.4 0-.9.2-1.2-.3-.1-.6-.3-1.4-.1-1.6.1-.2-.4-1-.7-1.3-.4-.2-1.1-.8-1.1-1-.1-.2-.5-.7-.8-1-.3-.3-.4-.6-.7-.8l-.2-.2c-.2 1.7-.4 3.4-.5 5.1.4.6.8 1.2.6 1.5-.3.5-.5.9-.1 1.3.4.3 1.1.5 1.2.6.3.1.8.5.7.8-.1.5.3.7.5.7.3-.1 1.3-.6 1.5-.2.1.2 2.1.9 2 1.3-.1.3.1.7.5 1 .4.3.8.2 1.1.2.3 0 .5.7.5.9 0 .3.7.8.9 1.3.1.5.8-.2 1.3-.1s.5-.8.9-.6c.4.2.8 0 .7-.3-.1-.2-1.3-1-1.2-1.2 0-.2-.1-.8-.1-.8s0-.6.5-.5c.5.1 1.3-.1 1.5-.3.1-.2.7-.3.7-.7s.4-.8.4-.8.1-.2.7-.2c.4 0 .7-.1 1.1.1.4.1.9.3.9.8s.4.7.7.8c.3.1.8.1.7.6 0 .3.5.5.1.9-.4.3.5.5 0 .7-.5.2-1.3.7-1.1 1 .4.3 1.5 1.2 1.3 1.5-.1.3.4.9.8 1.4.4.3 1.1 1.7.9 2.1s.1 1.7.1 2.3c-.1.6.3.8-.1 1.5-.5.7-.5 1.4-.5 1.7 0 .2.4 1 .1 1.7-.3.7-.4 1.7 0 2s1.1.5.7.8c-.4.3-.7.6-.9.8-.1.2-.7.6-.8.9-.1.3-.4.6-.5.8-.1.2-.4.6-.4.6l-.4.4-.9-.2c-.3-.1-.5-.1-.8.1 0 0-.3.8-.1.9 0 .2.1.6-.1.8-.3.1-.8 0-.8.7 0 .8.3 1.6-.3 1.6-.5 0-.9-.1-1.7 0 0 0-.7.6-1.2.5-.5-.1-.8.1-.8.5 0 .3.5 1.2.3 1.4-.4.1-.3 1-.5 1-.3 0-.9.2-.9.7 0 .3.4 1.2-.1 1.3-.4.1-.7.7-.9.8-.3.1.5.6.3 1.2-.3.6.3 1.3 0 1.6-.3.3-.5 1.4-.3 1.7.1.3.7.8 1.3 1 .7.2.7.9 1.2.6.5-.3 1.3-.5 1.2 0-.1.5-.1 2.1-.8 2-.7-.1-1.3-.1-1.7.3-.5.5-.9 1-1.7 1.4-.8.3-.4 1.6-.1 2.3.1.7.1 1.5.7 2 .5.5 1.5 1.6.7 1.6s-1.1.6-.8.8c.4.2 1.6.7 1.7 1.3.1.6.9 1 1.6 1.5.7.3 1.5.7 1.5 1.3.1.7.1 1.2.1 1.7-.1.6.5.8.8 1.4.3.6 1.5.7 2 2.2.7 1.5 3.1 6.3 4.9 9.2 2 2.9 4.7 8.1 4.9 8.9.3.8 1.2 3.2 1.7 3.8s13.3 9.8 14.1 10.7c.8.9.5 1.5 1.2 2 .7.6 3.1 1.4 3.1 1.8 0 .6-.3 1.4-.1 2 0 .6.7 1.8.9 2.3.3.3.5 1.2.4 1.7-.1.6 0 2 .3 2.4.3.5.8 1 .5 1.5-.3.6.1 2.1-.1 3-.3 1-.3 3.5.1 4.6.4 1.2 1.6 2 1.1 2.8-.5.8-.9 1.2-.7 1.7.3.6 1.5.5 1.1 1.5-.4 1-.1 2.1-.4 3.2-.3 1.2-.8 3.2-.4 3.5.4.3 1.3 2.7.9 3.5-.4.8.5 1.6.7 1.8.3.2 2 4.3 2.3 6.7.3 2.3.5 4.6.3 5.5s.1 2.7-.3 3.1c-.3.3-.7 1.6-1 2.6 7.4 8.1 15.4 15.7 24.1 22.5.1-.3.3-.5.4-.6l.5-1s.5.1.9.2.9.3 1.1.1c.1-.2.1-.8.1-.8s-.1-1-.4-1.2c-.3 0-.5-1-.5-1l-.1-1.3c.5-.5.5-1 .9-.6.4.5 1.3.6 1.3.2 0-.3-.1-1.2-.1-1.2s-.9-.5-.9-.7-.5-.2-.8 0 0 .3-.3.5c-.3.1-.7.2-.8 0-.1-.2-.1-.7-.5-.8-.4-.1-1.1-.1-.9-.5.1-.3-.3-.9-.3-1.3 0-.3-.5-.8-.5-1 .1-.3.3-.9.5-.7.3.2 1.1.8 1.1.8s.3.8.5.8c.4.1 1.1.3 1.5.3.4.1 1.5.3 1.5.3l.8-.1c.7-.3.5-1 .5-1l-.8-.8c.1-.7 0-1.6 0-1.6-.5-.5-.9-1.5-.9-1.5.7 0 1.7.3 2.4.6.7.2 2.1.1 2.4.2.3 0 .9-.3 1.6-.1.5.2 2.3 0 2.3 0l1.5-.3.4-1.3.9-.5.3-1.2-.1-.7-.1-.9-1.1-.1-.4-.5.4-1.3s-.1-1.2-.4-1.2-1.2-.5-1.2-.5-.7-.8-.9-.9c-.3 0-.8-.5-.8-.5l-.4-.6-.4-1.3s.8 1.4 1.5 1.6c.7.2 1.6.3 1.9.6.3.2 1.1.3 1.3.5.3.2 1.1 0 .9.3-.1.3 0 .3.4.6.4.2.5.2.9.1s.8-.1 1.1-.1.5 0 .8.1c.3.2-.1-.3.3.2.4.6.9.6 1.3.6s.9-.3 1.3-.5c.5-.1 1.2-1.8 1.7-1.7.5.1.8 0 1.2-.3.4-.3.5-.7.7-1 .1-.2.3-.9.5-.7.3.2.9-.7.9-.7V330s.3-.8.5-.9c.3-.1.5-.5.8-.6.3-.1.4-.8.8-.6.4.1.8-.1.9-.5.1-.3.1-.7.1-.7l.8-.1s.8-.2.7.1c-.1.3-.4 1-.4 1l-1.2.7s-.8.2-1.1.3l-.8.5c-.4.7-.8.6-.7.8.1.2.8.6.9.2.1-.3.1-.9.5-.9.3 0 .7-.1 1.1-.2.3-.1 1.2-.7 1.2-.7s.4-.2.7-.5c.3-.2.7-.1.7-.5 0-.5.1-.9.1-.9s.1-.5.3-.7c.1-.2.4-.6.7-.7.3-.1.4-.2.7-.3.3-.1.3-.1.7-.3.4-.1.5-.1.7-.3 0-.2 0-.6.4-.6s.8 0 .9-.3c.1-.3.7-1 .7-1s-.3-.6-.3-.8.1-1 .4-1.3c.3-.2.4-.8.4-.8s.1-.5 0-.7c-.1-.2-.1-.7-.3-.9-.3-.2-.1-.7-.1-.7s.1-.2.3-.3c.1-.1.3-.1.3-.3 0-.2-.3-.7 0-.8.3-.1.7-.3.7-.3s.7-.2 1.6-.5 1.1-.3 1.5-.6c.4-.2 1.2-.2 1.6-.2s.8-.3.9-.6c.3-.2.9-.5 1.5-.3.5 0 1.7-.2 2.3-.2s1.1.1 1.5 0c.4-.1.9-.5 1.2-.7.3-.2.7-.8.9-.8.3 0 .5-.2.9.1.4.3 2.1.2 2.4.3.3.2 1.7.2 2.1.5.4.2 1.7.7 2.3.6.5-.1.7-.5 1.2-.7.4-.2 1.2-.3 1.9-.2.5 0 1.1.1 1.5-.2.4-.3.5-.8.5-1.2l.4-1.2.7-.7s1.1-.3 1.3-.6c.4-.2.9-.8.9-.8s.4-.8.4-.9c0-.2.3-.7.8-.6.5.1 1.2.2 1.5 0 .3-.3.4-.9.4-.9s-.4-.8-.1-1.4l.4-1.3c0-.2.1-.6.5-.6s.7.1 1.1-.3c.4-.5.7-2.3 1.1-2.7.4-.2 1.9-1.7 1.9-2.1s.1-1.3 0-1.7c-.1-.5.1-1.8.4-1.8.3 0 .7-.5.5-.8-.1-.3-.3-1.2-.1-1.4.3-.1.7-.7.9-.7s-.3-.9-.3-.9l.5-.5s.4-.8.5-1.2c.1-.3-.1-1.4.4-1 .4.3 1.1.7.9 1.3-.1.6.9.8 1.1.6.1-.2.7-.8.9-1.2s.9-.2 1.3-.5c.4-.2 1.7-.9 1.7-1.3s.4-.8.4-1 1.3-.8 1.3-.8.8-.1 1.5-.3c.8-.2 3.6-2 4-1.8.5 0 1.2-.8 1.9-1.3s1.3-1.2 1.7-1.4c.4-.2 1.2-.6 1.3-1 .3-.5.8-1.2.8-1.5s1.3-1.6 1.2-2.1c-.4.7-.7.2-.5-.5 0-.7-.5-1.7-.4-2 .1-.2.1-.6.3-1 .1-.5.5-.8.5-1-1-.1-.3-.1-1-.4z" fill="url(#SVGID_6_)"/><radialGradient id="SVGID_7_" cx="264.023" cy="126.339" r="312.704" gradientUnits="userSpaceOnUse"><stop offset=".001" stop-color="#76f780"/><stop offset=".161" stop-color="#72f17b"/><stop offset=".385" stop-color="#66de6d"/><stop offset=".647" stop-color="#52c155"/><stop offset=".935" stop-color="#379735"/><stop offset="1" stop-color="#308d2d"/></radialGradient><path d="M356.2 75.1c.5 1.4 1.1 3 1.2 3.5.2.8.5 1.1.5 1.1s.2 1 .3 1.3c.2.2.1.8.1 1.2 0 .5-.1.7-.5 1.1-.3.4-.7.8-.7.8s-1.2.1-1.4 0c-.3 0-.4-1-.3-1.3.1-.4-.5-.3-.5-.3s-1.4.3-1.6.5c-.1.3-.6.3-.7.6-.1.4-.3 1.2-.1 1.4.2.2-.5 1.1-.4 1.7 0 .5-.3.4-.4.8-.1.3-1.1-.2-1.1-.2l-.8-.4h-1.4s-.7-.3-.9-.6c-.2-.3-1.6-.3-1.6-.3l-1 .1s-1.1.5-1 .8c.1.4-1.5-.1-1.5-.1l-.4-.5s-.3-.6-.6-.6c-.4-.1-.6.3-1 .4s-.5-.3-.9-.2c-.4.3-.8-.1-1.2.1s-1-.1-1.2-.1c-.3 0-.4-.8-.6-1.2-.1-.4-.7-.5-1.1-.4-.3.2-.7.3-1.2.1-.4-.2-.7-.6-1.2-.1-.3.4-1.4 1-1.6 1.1-.3.2-.3.2-.5.7-.2.4-.5.5-.8.9-.3.4-.4.3-.5.8-.1.5 0 1.1 0 1.1s.4.5.5.8c.2.2.2 1 .4 1.2s.2.3.5.8c.1.4.3.4.7.8.4.4.3.4.4.8.2.3.3.7.4 1.2.1.4.1.4.1.6-.1.4-.1.7-.4 1.2-.3.5-.2.4-.8.9s0 0-.4.1-.7-.1-.9-.2c-.3 0-.9-.4-.9-.4s-.7-.1-.9-.4c-.2-.2-1-.3-1.3-.3-.4-.1-.9-.4-.9-.4h-.8c-.3 0-.4-.2-.6.1-.1.3-.9 0-1.3.4-.3.4-1 .1-1.6-.2-.5-.3-1.6 0-1.6 0s-.6-.6-.9-.8c-.3-.2-.5-.8-.5-.8l-.2-1s-.2-.5-.1-.9-.8-.2-.8-.2-1.3.2-1.4.3c-.1-.1-.1-.4-.6-.6-.4-.2 0 0-.5 0s-.6.3-.9.5c-.3.2-.9 0-.9 0l-1.2-.4c-.4-.1-.5 0-.6.3-.1.3-.2.3-.6.7-.3.4-.5.2-.7.3s-1.3.1-1.7.1c-.4-.2-.9-.2-1.2-.8-.2-.5-1.4-.2-1.4-.2l-1.2.1-.5-.6s-.7-.1-.9 0c-.4.1-.7.2-1.3.2-.6.1-1.4-.6-1.4-.6l-.7-1.4.3-.7.4-1.1.2-1.1-.2-1.2-.1-1.1-.1-.8s-.7-.6-1.4-.9l-1.3-.3-.7-.6.1-1 .2-1.1.3-1s-.2-.8-.8-1.2l-.7.3s-.3 1.2-.6 1.2c-.2.1-.7-.6-.7-.6l-.2-.5-.7-.8-.9.1s-.9.3-1.2.5c-.2.3-.6.4-.8.9-.1.3-.1.5-.2.9-.1.5-.5.4-.7.5-.2.3-.9.3-1.4.5-.5.4-.6.3-.9 0-.3-.2-.9-.2-1.1 0-.4.1-1 .6-.8.9.1.4-.5.4-.9.5-.4.1-1-.1-1.2.1-.2.1-1.6 1.5-1.8 1.9-.2.3-.7.6-1.1.9-.4.3-.8-.5-.8-.5s-1.3.2-1.5.3c-.2.1-1.2.5-1.3.8-.1.3-1.3.6-1.9.7-.6.1-.9.3-1 .6l-.3.9s-.5.4-.7.5-.9.5-1.1.6-.9.5-1.3.6c-.4.1-1.2.8-1.3 1.1-.1.3-1.1.6-1.8 1.3-.7.5 0 0-.3.5s-.4 1.1-.5 1.6c-.1.5-.2.3-.6.3s-.6.3-1 .7c-.3.4-.3.7-.4.9-.1.3-.7.6-.7.6s-.4.8-.5 1.1c-.1.4-.5.7-.7 1-.2.3 0 .9.1 1.2 0 .3-1.4.2-1.9.7-.3.4-1.1.5-1.5.4-.4-.2-.6-.2-1.1-.4-.5-.1-.4.3-.7.8-.3.5-1.1 0-1.3-.1-.3 0-1.8.8-2.1 1.1-.2.1-1.9.5-2.3.6-.4.1-.6.1-.9-.2-.4-.4-1.3-1.2-1.3-1.2l-.4-.5c-.3-.4-.4-.2-.7-.1.1-.1.1-.2.2-.4.2-.6 0 0 0-.2s.2-.6.4-1.1c.1-.4.1-.4.3-.7.2-.3.4.2.8.1.5 0 .3-.5.5-.8.2-.4.2-.6.3-.9.1-.3.3-.2.5-.4l.6-.3c.4-.1.5 0 .9-.1.3-.2.6-.4 1-.6.4-.1.6-.3 1.1-.2.5.1.4.1 1-.2.6-.3.1-.3.7-.6.5-.4.6-.1 1.1-.3.5-.2.7-.8.7-.8v-2c0-.6-.1-.8 0-1.1.1-.4.5-.2.7-.3.2-.1.4-.1.9-.3.5-.2.1-.3 0-.8-.2-.5-.2-.7-.2-1.2s.1-.7.2-1.6c0-.8.3-.7.3-.9 0-.2.1-.5.3-.9.1-.3.3 0 .5-.4.3-.2.1-.7.1-.7s0-.3-.5-.3c-.4.1-.3-.1-.7-.1-.5 0-.5-.5-1-.5-.4.1-.4-.4-.7-.6-.4-.2-.3-.4-.7-.8-.4-.4-.2-.5-.3-.9-.1-.4.3-.9.3-.9s.1-.5 0-.8c0-.2.2-.4.5-.8s-.1-.6-.3-1.1c-.1-.6.2-.4.6-.7.4-.3.1-.3.1-.7 0-.5-.3-.7-.7-1-.3-.1-.1-1.1-.1-1.2 0-.2.6-.4.6-.4l.7-.6s.8-.4 1.1-.3c.4.1.5-.4.7-.6 0-.3.5-.5.5-.8.1-.4.2-.6.2-.8 0-.2.2-.6.3-.9.1-.3.3-.4.4-.8 0-.3-.1-.6-.1-.9-.1-.1 0-.5-.3-.7-.3-.2-.2-.5-.3-.7-.2-.3-.3-.2-.5-.3-.3 0-.2-.3-.8-.4-.6 0 0 0-.3-.2s-.4-.5-.5-.9c0-.3-.1-.6-.1-.9s-.5-.6-.3-.6c.1-.1.5-.2.9-.1.4-.1.2-.3.4-.6.1-.3 0-.3-.2-.7-.2-.3 0 0 .2-.3s.9-.1 1.1-.3c.2-.1.5 0 .8.2.3.1.6.2.9 0 .2-.1.6-.4 1.1-.7.4-.3.9 0 .9 0s.7.3.9.2c.3 0 .8 0 1 .1.3.1.3.1.6 0 .3 0 .6-.3.7-.5.1-.4.7-.5.6-.7 0-.2.2-.6.2-.6s0-.5.2-1.1c.2-.6 0-.8.1-1.2.1-.4.3-.2.5-.4.2-.1.5.1 1-.2.4-.3.4-.6.3-1-.1-.4 0-.5-.1-.9s-.3-.6-.3-.9c0-.3.2-.6.3-.9.2-.1 1-.4 1.3-.4.3 0 .8.2.8.2s.7.3 1 .6c.3.2 1 .1 1.3.1.3 0 .8.2 1.1.2.4.1.7.5.7.5s.3.4.2.8c0 .3.7.5.7.5l.9.2s.5.5.5.8c.1.4.6.4 1.1.5.4.2.7.8.9 1 .2.2.7.5.9.6.3.1.8 0 .8 0s.5-.2.7-.2c.2 0 .6.4.8.4.3.1 1 .1 1.2.1.4.1.7.6.7.6s1.2.6 1.5.8c.3.2.8.5 1.2.6.3.1.7.5 1.1.4.5 0 1-.4 1.1-.5.2-.1.5-.2.9-.1.3 0 .5.1.5.1l.5.3s.3.2.7.6c0 0 .3.1.5.1h.8c.3 0 .3.2.5.5.2.2.3.2.6.2.5 0 .3-.2.6-.3.3 0 .3.1 1 .3.5.1.5.8.8 1.1.3.2.8.2 1.1.2.2 0 .5.1.9-.1.4-.1.7.5.7.5s.5.5.6.7c.2.2.9.6 1.3.9.3.2.5.5.7.8s.4.4.8.7c.3.2-.2.8-.2.8s0 .5.1.9c.2.3.4 1.3.4 1.7-.1.4.2.2.2.5.2.2.4.4 1 .3.3 0 .3-.2.5-.5.1-.3.1-.4 0-.7v-.7c0-.3.1-.5.1-.7 0-.3 0-.3-.2-.5s0-.3-.5-.6c0 0 .1-.4-.1-.6-.1-.1.2-.6.2-.6s.1-.4.4-.8c.3-.4 0 0 0-.5s-.2-.3-.5-.6c-.2-.2-.4-.5-.8-.5-.5-.1-.3-.6-.5-.5s-.8-.2-1.2-.3c-.4-.2-.3-.2-.3-.7 0-.5-.3-.6-.5-.8-.3-.1-.2-.5-.2-.8-.2-.2 0-.8.3-1.2.1-.3.4.5.4.5.2 0 .4.1.6 0 .2-.1.6.2.9.3.2.2.6 0 .8.1.3 0 .4.2.7.3.2.3.3.4.7.5.4.1.7-.2.8-.7.1-.5.3-.5.3-.5l-.8-.9s-.3-.4-.7-.5c-.4-.1-.3-.2-.7-.1-.4.1-.8-.4-1.2-.6-.4-.2-1.1-.4-1.5-.4-.5 0-.6-.4-.8-.5-.3-.1-.9-.2-1.3-.2-.4-.2-1.1-.2-1.8 0-.6.1-.7-.1-1.3-.2-.5-.1-.6-.6-.6-1l-.2-1s-.2.3-.5.4c-.4.1-.6.3-1 .6s-.6.1-1.1 0c-.5-.1-.7-.1-1.4-.6-.7-.3-1.6-.5-2-.4l-.8-.2s-.6-.6-1-.9c-.2-.3-.5-.5-.6-.9-.1-.4-.7-.6-1.1-.9-.2-.3-.6-.2-1.2-.3-.5-.1-.7-.5-1.4-.6-.6 0-.4-.2-.8-.5-.4-.4-.7-.1-1.1-.2-.4-.2-.5-.5-1.2-.3-.6.1-.5-.3-1.1-.2-.6.1-.5-.8-.5-.8s-.9-1.3-1.1-2c-.2-.7-.3-.6-.6-.7-.4-.1-.8-.2-1.3-.2s-.1-.6-.1-.6.8 0 1-.8c.3-.7.1-.7.1-.7s.7-.5 1.6-.8c0 0 0 .7.5 1.2.6.6 0 0 .3.1s.5.3.7.6c.3.2.6.6 1.2 1.3.2.3.5.1.8-.7.1-.7 0 0-.4-.5s-.7-1.4-.6-1.7c.1-.4.8 0 .8 0s.7.5 1.1.9c.4.4.7 1 1.1 1.1.3.2.6.6 1.2.8.7.3 1.1 1.1 1.1 1.1l.6.7s.5.3 1.4.5c1 .1.8 0 1.2-.1.4-.1 1.2.8 1.2.8l1.4.2c.8 0 .9.2 1.6.2.6 0 .3.7.3.7s.4.2 1.2.1c.8 0 .5.1 1 .5.4.4 1.5-.1 1.8.2.3.2.9.3 1.7.2.9-.1 2.5 1.1 3 1.4.5.1.5.5.7.8.2.3.4.8.7 1.3.3.4.5 1.2.8 1.8.3.6.4 1 .6 1.3.2.3.8 0 .9.6.2.7.3.7.5.9s.4-.1.9 0 .2.3.7.5c.3.1.3.4.9.6.6.2.9.2 1.1.2.4.1.3.6.5 1.2s1.2.6 2 .8c.8.2 0 .7.2 1 .2.3 1.2.1 1.5.6.4.5 1.1.2 1.9.3.8.1 0 .9 0 .9s-.3.5-.4.8c-.1.4.4.5.9.6.5.1.1.6.3.9.2.3.9.4 1.2.6.3.1.5.3.8.7.3.4.2.8.5 1.2.2.3.4.2 1.1-.3.7-.3.8.2.8.2s.3.4.9.6c.7.1.2-.4 1-.7.7-.3.7 1 .9.8s.3-.4.1-1 .2-.4-.5-.9c-.6-.6-.8-.5-.8-.5s-.3-.4-.6-.7c-.3-.2-.5-.1-.9-.8-.3-.6.8.1 1-.1s.4-.8.4-.8-.4-.4-1.4-.6c-.4-.1-.4-.5-.8-.4s-.7-.3-1.2-.6c-.4-.4-.6.1-1 .2-.3 0-.7-.1-1.1-.2-.4-.1-.1-.6.1-.7s1.2.1 1.2.1.8-.2.9 0c.1.4.6.2 1.1.2.5 0 .9.2 1 .5.2.2.9.6 1.2.4s-.2-.8-.5-1.2c-.4-.5 0 0 .1-.5s.1-.7-.1-.8c-.4-.1-.6-.2-.7-.6-.1-.4-.1-.8-.5-.9-.5-.1-.5-.1-.7-.1-.3 0-.5-.1-1.1-.4-.5-.3-.5-.3-1.2-.6-.6-.2-1.1.9-1.1.5 0 0-.1-.4.1-1.2.1-.7-.1-.6-.3-.7-.3-.1-.7-.1-1.1-.2-.4-.1-.7-.5-.9-.8-.3-.1-.2-.3-.9-.3-.5-.1-.4-.4-.7-.8-.2-.3-.2-.8.5-.8.3 0 .4.4.7.5.4.1.5.3.8.5.4.4.6-.3.9-.3.2-.1.6-.1.7-.8.1-.7 0-.3-.2-.7-.1-.4-.7-.6-.7-.6l-.9-.2-.1-.8 1-.7-.2-.8s.3-.7 1-.7c0 0 .6.4.9.4.4.1.9.3.9.3h.8l.9.2s.3-.2.7-.5l.6-.6.1-.7s.1-1.2.4-1.7c0 0 .8.1 1.1 0 .3 0 .3.2 1.1.2.9 0 0 0 .4.2s0 .3.1.6c.2.2 0 .8 0 1.1 0 .3-.3.4-.7.3-.5 0-.5.4-.8.4-.3 0-.8.2-.8.2s-.6.4-.9.5c-.4-.1-.5.4-.5.4s-.6.1-.8.2.5.5.5.5.6.6.7.8c.3.1.5.5.6.7.2.2.3.9.5 1.1.2.2.4.5.5.8.2.2.6-.7.6-.7s.6.6.7.8c.2.2.5.3.7.8.3.4.5.6.6 1 .1.4.5.1.7.3.2.2.1.8-.1 1.9-.1.4.1.8.1.8l.4.1c.4.1 1.2.1 1.2.1l.7.1s.4.4.8.4c.4.1.3.6.5 1.2.2.5.3.6.3.6l1 .6s.3.7.9 1c.5.3.1.6.5.9.3.4 0 0 .8-.2s.1-1 .2-1.6c.1-.5.6.6.8.9.2.3.7.6 1.4.8.7.3 1.2.6 1.2.6s.8-.2 1.3-.2c.6-.1.4.2.6 0 .2-.1.1-.4 0-.7 0-.3-.5-.6-.8-1.1-.3-.4-.4-1.7-.4-1.7s.3-.2.8 0c.5.1 1 .3 1 .3l1 .6c.5.3 1 .5 1.3 1 .4.5.6.4 1 .7.4.4.3-.2.7-.5l.1-.1c-23.5-25.5-54-45.1-89.3-55.7 0 .1-.1.1-.2.2-.3.4-.5.2-.6.4-.1.3-.5.5-.4.9-.1.4-.5.4-.5.4s-.4-.1-.6-.4c-.2-.3-.9-.3-1.2-.4-.3-.1-.4-.1-1 .2-.6.3-.6.1-.9.1s-.2-.3-.5-.5c-.2-.2-.5 0-.9.1s-.4.3-.7.3c-.2.1-.4.3-.3.9.1.6-.3.2-.5.5-.1.4 0 .5-.1.7-.1.4-.5.7-.8.7-.4.1-.6 0-.6 0l-.3-1.1s-.3-.2-.7-.6c0 0-.3 0-.4.3-.2.1-.4-.1-.6 0-.3 0-.6.3-.6.3l-.5-.1s-.2-.5-.3-.7c-.2-.3-.5.2-.8-.1-.3-.2-.6-.2-.6-.2s-.4-.2-.8-.2c-.4-.1-.3-.1-.7-.1-.5 0 0 0-.4.1s0-.3-.6-.9c-.6-.6-.7-.6-.7-.6l1-.1.2.2c.2.2.7.5 1 .5.2-.1.8.1 1.2.3.3.2.7.1 1-.1.2-.1-.2-.3-.3-.4l-.2-.8c-.1-.4-.4-.4-.7-.6-.4-.2 0 0-.3-.1s-.4-.2-.6-.2c-.2 0-.6 0-1.1.3-.4.1-.6.1-.7-.1l-.6-.2s0-.5.1-.7c.1-.4 0-.3-.1-.6 0-.3.1-.4.4-.6.4-.3 0-.7.2-.8.1-.1.1-.3.1-.5-2.3-.5-4.6-.9-6.9-1.3.1.6-.3.3-.5.3-.3 0-.2.1-.5.2-.2.1-.5.5-.5 1 0 .2.1.6.3.9.1.4.2.2.3.2.2 0 .5-.5.5-.7 0-.2.1-.5.1-.5s.2-.3.7-.3c.5 0 0 0 .4.2s.2.3.2.3-.6.1-.9.1c-.4.1.1.4.2.7 0 .2-.2.3-.6.3-.4-.1-.6.1-.7.5-.2.4 0 0 .5.5s.2.7.3 1.1c.1.4.3.6.7.8.4.2.3.1.9.3.5.1.6.6.5.9 0 .3.8.7 1.4.6.5-.2.3.4.8.5.5.1.4.2 1 .1s.3.2.3.7c0 .5-.1.5.1.8.2.2.2.2.9-.1.7-.3.5 0 .8.1.4.1.2.3.3.6.2.2.4.5.4 1.3.2.7.4.4.6.2.4-.1.5.3.9.3.5 0 .4.5.3.7 0 .2-.3.5.1.9.3.4.1.4 0 .7-.1.3-.6 0-1.5-.3-.2 0-.5 0-.6.1-.2.1-.4-.2-.6 0-.2 0-.3.5-.2 1.1 0 .5.3.9.1 1.1-.2.1-.4-.1-.8 0-.3 0-1.1.3-1.1.3l-1.1.6-.2.6c-.2.6-.1.7-.1 1.4s-.2.6-.4.6c-.3 0-.5.2-.6.4-.1.3 0 .3.5.6s.1.8.6 1c.5.3.1.9.3 1.1 0 .3.1.8 0 1.1-.1.4-.1.4-.1.5 0 .2.6.4.7.8.1.4 0 0-.2.4s-.4-.1-.5-.1c-.3-.1-.5.2-.5.2s.4.5.7 1-.1.5-.4.6c-.2.1-.5.2-.7.3-.1.3-.3.5-.2 1.1s-.7.6-1.3.9c-.6.3-.7.6-1 1-.2.4.5 1.4.5 1.4s.5.5.7 1c.1.4.4.4.4.4s.2.2 0 .8c-.2.6-.4.3-.7.6-.3.2.1.4.1.4s-.2.3-.7.6c-.3.2-.3.4-.6.6-.3.2-.1.4-.1.5 0 .3.2.3.6.6.2.3.2.3 0 .5s-.2.1-.7.3c-.5.2-.5.4-.8.7-.3.2-.6.1-.9.3-.4.1-.5 0-.7.2s-.3-.1-.6-.4c-.2-.3-.5-.1-.6-.4 0-.3-.4-.1-.5 0-.2 0-.6.3-.8.4s-.7.2-1.2.3c-.6.1-.1.4.5.8.3.1.3.1.8.4.5.3 0 0 .3.2s.8.4.8.4.3.1.6.4c.2.3.5.5.5.5s.5.5.5.9c-.1.4 0 0-.2.1s-.3.2-.9.3c-.6.1-.5.2-.8.2-.3 0-.2.1-.4.3-.1.1-.2.3-.5.5s-.6 0-.6 0-.3-.2-.3-.7c0-.5-.9-.2-.9-.2l-1 .2-.4.8-.5.7h-.8s-.7.2-.8.2c-.1.1 0 .7-.2.8s-.5 0-.7.2c-.4.1-.4.3-.4.3l-.1.7s.4.5 1 .6h.3c.3 0 .3.4.6.6.3.1.3.6.5.8.3.1.5.8.5.8h.9c.4.1.5.1.9 0 .3 0 .6-.7.6-.7s.5 0 .8.1c.4.1.5-.2.9 0s.6 0 .6 0 .6-.1.9-.3l1-.4c.3 0 .2-.1.7-.2.4-.1.4.2.7.3.3.1.2.5.5.8.3.2.3 0 .6 0 .4.1.3.4.6.6.3.1.3.4.5.8.2.5.2.3.5.3s.2.2.5.3.7.1 1.2.1.6-.1.9-.3c.3-.2.8 0 1.1 0 .4.1.3.4.3.7 0 .3.5.9.5.9s.3.6.5.9c.2.2.7.1 1.4.2.5 0 0 .8 0 .8v1.2c0 .3.1.4.4.5.3.1.4.5.7.6.3.1.2.3.3.6 0 .3.3.7.5.9.2.2.2.5.7 1 .3.4.2.7.3 1.1s.6 1.2.8 1.5c.2.3-.1.4-.1.7-.1.3-.6.6-.9.8-.3 0-.7.5-.7.5l-1 .6s-.9.3-1.1.3c-.1.1-.5 0-.6-.2s-1.2.3-1.5.4c-.3 0-.8 0-1.3.2-.4.1-.2.3-.3.5 0 .2-.6.3-1.2.5-.5.2-1.4.7-1.7.9-.2.1-1.2-.3-1.2-.3l-1.3.4s-1-.1-1.2.1c-.2.1-.5.2-.8.4-.3.2-.5.5-.9.5-.5 0-1.6.6-2 1-.2.3-.6-.4-.8-.5-.3-.1-.6 0-.9-.2-.3-.1-.5.4-.7.5s-.5 0-.5 0l-.9.1s-.5.5-.6.7c-.1.3.2.7.3.9.2.2.1.6.1.6l-.9.1-.7.2s-.6 0-.7.6c0 .7-.5.5-.7.6s-.3.4-.3.7c.1.1.3.7.3.7s.5 0 .6.2.3 0 .6-.1c.2-.1.5.1.5.1l.3.2.5.3s.3.2.5.5c.2.2.3.6.3.7.2.2.3.4.5.6s.1.6.2.8c.2.2 0 .7.1.8.2.2.4.2.8.2.3.2 0 .5.2.8.2.2.2.3.6.6.3.2.4.1.6.2.3.1.2.3.2.3s.2.5.2.8c.2.2.3.9.3.9s.1.6.3.9l.4 1c.1.4.1.6.3 1.1l.4 1c.1.4.1.6.1.9s-.2.6-.3.7c-.2.1-.2.4-.3.7-.1.3.1.4.3.7s.4.5.4.8c.1.1.1 1.1.1 1.1s.3.4.7.6c.4.2 0 0 .4.5s0 0 .4.2.3 0 .7-.3c.4-.3.2.3.5.5.3.1.3.2.7.6.3.2.2.7.1.9 0 .2.2.5.5.8.2.3.4.4.5.8 0 .3.1.6.2.7v.8s.4.5.7.8c.3.2.2-.1.8 0 .5.1 0 0 .5-.2s.3-.2.4-.6c.2-.3.5 0 .6 0 .2 0 1 .1 1.7-.1.6 0 .5-.4 1-.7.3-.4.4-.6.7-1 .3-.4.4-.1.9-.1.4.1 1 .1 1.3.2.3.1 1.1.2 1.3.3.3.1.4.5.5.9.1.4.7.1 1.1.4.3.2.3.7.3.7s.8.5 1.1.5c.3.1.5 0 .8 0-.3.3-.5.7-.5.7s.1.8.3 1.1c.2.3.2 1 .2 1s-.1 1-.3 1.3c-.2.3.2 1.9 0 3.1-.3 1.2-.1 1.2-.1 1.7s-.1.5-.3 1.2c-.1.5-.3.5-.8.9-.3.4-.5.2-.9 1s-.9 1-1.1 1.1c-.4.1-.6.3-.8.6-.2.3-.6.9-.4 1.4.2.5-.3.7-.5 1.3-.3.5-.4.6-.5 1.1-.1.5.2.8.6 1.3.4.5.1.4 0 .9s-.1.5-.1 1-.3 1-.6 1.4c-.3.4.5 1.9.5 1.9s.1.8.5 1.1c.3.4.5 1.1.5 1.1l.7 1 .8.2s0 .3.2.8c.1.4.1 1.2.1 1.5 0 .3-.2.9-.2 1.5-.1.5-.3.9-.5 1.3s-.3 1.3-.5 2c-.1.5-.5.8-1 1.3s-1.1 1.9-1.4 2.6c-.3.7-1.3 1.3-1.4 1.6-.1.3-1.4.7-1.8 1-.4.3-1.1.9-1.1 1.3-.1.4-.1.7-.1 1 0 .3 0 .8.1 1.7.1.9-.2 1.1-.1 1.9.1.8 0 1.1-.2 2.2s-.5 1.1-1 1.7c-.6.6-1 1.5-1 1.5s.2 2.3.2 3c.1.8.3 1.6.4 2 .1.4.1.8.2 1.4.2.7-.1 1.2-.2 1.7s-1 1.3-1.2 1.7-.3.7-.6.9c-.2.3-.3 1.2.1 1.9.3.7-.6.6-.5 1.3.1.8.6 3.4.7 3.5.2.2-.4.1-.6.1-.3 0-.5.7-.5 1.1 0 .5-.3 1-.3 1s-.1.7-.1 1.5c.1.8.6 1.2.7 1.6 0 .5-.1 1.2 0 1.4.1.4.5.6.9.8.3.1.8-.7.8-.7s.9.2 1.3.2c.4.2.7.6 1.1 1 .5.3.7 1.9.8 2.5.1.6-.3.2-.3.9 0 .5.3 1.3.3 1.3s.5.3.7.6c.2.3.1.8.8 1.4.7.5.4.4.9 1.1.5.8.6 1 .8 1.7s.6 1.2.7 1.9c.1.8-.3.7-.4.9-.1.3.2 1.2.2 1.6s.3 1.1.2 1.4c0 .3-.2.8-.1 1.4.1.6.2.8.6 1.5.3.7.1 1.1.2 1.6.2.5-.8 1.8-1 2.4-.1.7-.9 1-.9 1l-.6.7s.2.3.5.3.5.5.7.6c.2.2.8.5 1.1 1 .2.3.5.3.8.5.4.4.4.4 1.1.4.6 0 .4.2.5.6.1.6 1 .7 1.5 1 .5.3-.6.3-.6.3s-.9-.2-1.1-.5c-.2-.3-.9-.2-.9-.2s-.2.6.4 1.3c.6.7.3 1.3.6 1.5.2.3.8.4 1.6.2s-.2.4-.5.5c-.4.1-.7.3-.6.7.1.4.1.4.3.7.3.2.9 0 1.4 0h.5s.1 1.1.4 1.2c.3.1.3-.2.7-.6.3-.2.4.1 1.3.3 0 0 .6-.1 1.1-1.1.2-.3.5-1.1 1-.8.5.1.2.3.5.8.3.4-.6.6-.8.7-.1.3-.2.9-.2.9s.4.8.5 1.1c0 .3 1.4.6 1.4.6.1.4.7.3 1.1.2.3 0 .5.1.8.1.2-.1.4.8.5 1.2.1.4.6.6 1.1.4.6-.1.7.1.7.1s.8.7 1.4.8.7.1 1.3.2c.5.1.6.9 1 1.2.4.4 1.2.4 1.2.4s-.4.3-.1.5c.3.1-.1 1.4-.1 1.4s.2.5.5.8c.4.4.3.7.5 1.1.1.4.9.8 1.3.9l1.2.6s.7.1 1.2.4c.5.1.6-.1 1.2-.3.7-.3.4.2.9.6.6.6.6.4.9.6s.6.4 1 .6c.4.2.6.4 1.4.6.8.2 1.5-.3 1.9-.2.4.1.7.3 1 .5.3.1 1.1 1.3 1.3 1.5.3.1 1.1.2 1.5.1.4-.1 1.6.2 2.1.5s1.5.6 2.2.7c.7.1 1.5.3 1.9.3.5 0 .9.6 1.2.4.2-.3.5-.5.8-1.2s.5-.4.8-.7c.2-.3.3-.4.7-.8.3-.4.5-.4.8-.9.3-.5.7-.8 1.1-1.4.4-.6.6-.7.9-1.1.3-.2.5-.2.9-.3.4-.1.8 0 1.5-.1.8 0 .7-.2.8-.7.1-.5.3-.5.6-.6.4-.1.7-.5 1.1-.6.4-.1.9 0 1.6 0 .5.1 0 0 .3.4s.4-.1 1-1c0 0 .9.2 1.3.3.4.2.5 0 .9 0s1.2.1 1.2.1.9-.1 1.2-.1c.4.1.3-.2.5-.4s.2-.4.1-.7c-.2-.2.1-.5.3-1 .2-.4.6-.6 1-.8.3-.2.3-.2.7-.5.3-.2.6-.3.9 0 .3.1.8 0 1.2-.3.3-.2.2-.4.6-1.2.4-.8.1-.5.6-.9.4-.3 1-.6 1.5-.7.5-.2.9-.1 1.2-.7.4-.6 0-1.1.2-1.6.1-.3 1.1-1.1 1.5-1.2.4-.1 1.3-.9 1.3-.9l1-.6s1.3-.6 1.6-.6c.3 0 1.4-.7 1.7-1 .2-.3 1.3-.2 1.5-.3.4-.1.8 0 1.1.2.3.2.9 0 1.2.6.3.7.9.4 1.4.6.6.4.7.6 1.2.8.5.1.3.7.3 1.3-.1.5 0 .8.3 1.4.4.5 0 0 .3.1s.5.6.6 1.2c.2.5.7.3.7.3s.6-.3.9-.5c.4-.1.4-.3.5-.7.1-.3.3-.4.3-.4s.6-.6.8-.4c.3 0 .3-.2.9-.3.5 0 .8 0 1.3-.1.6-.1.8-.9 1.4-1.3s-.3-1.3 0-1.6c.1-.3.8 1.2.9 1.5.2.2.8 0 1.1.4.2.3.2 1 .5 1.2.3.1 1-.6 1-.6l.4.8c.2.2.7 1.3.8 1.7.1.4.5.8.2 1-.3.2 0 .3.2.8.1.4 0 .8-.1 1.2-.1.4-.3.5-.3 1s.5 1.1.3 1.8c-.1.7 0 0-.3.5s0 .7-.2.9c-.1.3-.4.1-.6.6-.2.4.1.6.1.9 0 .3.7.3.7.6s.4 1.2 0 1.3c-.4.1-.4 1.2-.4 1.2v1.6s-.3.4-.3.7c0 .3.1.8 0 1.4.1.6.1.9-.4.9-.6.1-.4.3-.4.3s.1 1.1.3 1.4c.2.3.4.8.6 1.2.2.3.3.7.5.9.2.2.3.6.6.9.3.2.6.4.9.8.3.4.5.9 1 1.7.5.8.8 1.4 1.3 1.7.6.4.7 1 1.3 1 .6.2.7.8 1.2 1.4.4.5 0 1.1.5 1.4.5.3.3.7.7 1 .3.2-.2.9-.2.9s.2 1 .9 1.8 0 0 .3.2-.3.5-.4.9c-.2.4.2.8 1 1.6.7.8 0 0 .2.3s.2.7.3 1.4c.2.7.2 1 .4 1.7.1.6.3.9.6 1.8.4 1 0 .8 0 1.6s-.6.7-.8 1.1c-.2.4.2 1.6.4 2.4.2.8.3.9.5 1.6.3.7 0 .5.5 1.1.5.8.1 2-.2 2.6-.4.6.2.8.1 1.3s-.4 1.1-.7 1.9c-.4.9-.5 1.1-.8 2-.3.9-.6.7-.8 1.7-.4.9-.4 1.2-.5 1.8-.1.5-.8 1.2-1.1 1.8-.4.6-.4.9-.2 1.7.1.8.4.5.5 1.1 0 .5-.1 1-.2 1.5s-.4 1.4-.8 2.3c-.3.9-.5.8-1 1.2s-.4.8-.2 1.9c.3 1.3-.6 2.5-.4 3.5 0 .9-.5 1-.8 1.5-.3.5-.5 1.1-.2 1.6.3.6-.1.7-.1 1.2-.1.4.5 1.2 1 1.9.4.5.2.8.7 1.6.2.8.5.9.6 1.8.2.8 0 .9.5 1.9.5.9-.3 1.2-.2 2.2 0 .9.1 1.3.5 2.1.3.7.1.9.6 1.8s-.6.6-1.1 1.3c-.5.7-.4 3.2-.5 4.4-.1 1.2 0 .9.1 1.9 0 .9-.1.5-.1 1.4.1.8-.3.9-.7 1.8-.3.9-.2.8-.5 1.6-.2.8-.4 1.1-.5 2.7-.1 1.7-.3 1.5-.4 2.2 0 .7.3 2.4.5 3.5.4 1 .4.8.3 1.6-.1.7-.1.5-.3 1-.2.4-.5.5-.4.9 0 .5-.5 1.1-.6 1.6-.1.5-.7.2-.8.9-.1.7.5 1.9.6 2.8 0 .9-.4.6-.4 1.2 0 .4.1.6.1.9 24-24.3 42-55.1 51.1-90.6 17.4-62.8 1.5-126.6-36.3-173.9z" fill="url(#SVGID_7_)"/><radialGradient id="SVGID_8_" cx="264.023" cy="126.339" r="312.704" gradientUnits="userSpaceOnUse"><stop offset=".001" stop-color="#76f780"/><stop offset=".161" stop-color="#72f17b"/><stop offset=".385" stop-color="#66de6d"/><stop offset=".647" stop-color="#52c155"/><stop offset=".935" stop-color="#379735"/><stop offset="1" stop-color="#308d2d"/></radialGradient><path d="M242.7 7c.3.2.3.2.9.2.6 0 .5.5.6.7.1.1.6.7.6.7s.3-.2.5-.4c.1-.3.6-.1.6-.1l.8.4s.1.4-.1.5-.4-.2-1-.3c-.2 0-.5.7-.5.7l.7.5c.3.1.3 0 .6-.1.2 0 .4-.1.6.2s.4.1.7-.2c.3-.2.1-.4.1-.5 0-.2.5-.4.5-.4s.2-.3.1-.5c-.2-.2-.1-.4-.5-.8s0 0-.3-.1 0-.3-.3-.4c-.3-.1.2-.4 0-.7-.2-.2-.2-.3-.8-.5 0 0 .1-.2.1-.4-1.4-.3-2.7-.6-4.1-.9.1.1.1.2.1.2s.2.7-.1.7c-.3 0-.5.2-.5.7.1.5.2.5.7.8z" fill="url(#SVGID_8_)"/></g></svg>